solid OpenSCAD_Model
  facet normal -1 0 0
    outer loop
      vertex -47.2 -36 2.35
      vertex -47.2 36 2.4
      vertex -47.2 36 2.35
    endloop
  endfacet
  facet normal -1 -0 0
    outer loop
      vertex -47.2 36 2.4
      vertex -47.2 -36 2.35
      vertex -47.2 -36 2.4
    endloop
  endfacet
  facet normal 0 -1 0
    outer loop
      vertex -49.65 36 15.5
      vertex -47.25 36 14.5
      vertex -47.6136 36 15.5
    endloop
  endfacet
  facet normal 0 -1 0
    outer loop
      vertex -49.65 36 2.35
      vertex -47.25 36 14.5
      vertex -49.65 36 15.5
    endloop
  endfacet
  facet normal 0 -1 -0
    outer loop
      vertex -47.25 36 14.5
      vertex -49.65 36 2.35
      vertex -47.25 36 2.4
    endloop
  endfacet
  facet normal 0 -1 0
    outer loop
      vertex -47.2 36 2.35
      vertex -47.25 36 2.4
      vertex -49.65 36 2.35
    endloop
  endfacet
  facet normal 0 -1 0
    outer loop
      vertex -47.25 36 2.4
      vertex -47.2 36 2.35
      vertex -47.2 36 2.4
    endloop
  endfacet
  facet normal -0 0 1
    outer loop
      vertex -49.65 36 2.35
      vertex -47.2 -36 2.35
      vertex -47.2 36 2.35
    endloop
  endfacet
  facet normal 0 0 1
    outer loop
      vertex -47.2 -36 2.35
      vertex -49.65 36 2.35
      vertex -49.65 -36 2.35
    endloop
  endfacet
  facet normal 0 1 0
    outer loop
      vertex -47.2 -36 2.4
      vertex -47.2 -36 2.35
      vertex -47.25 -36 2.4
    endloop
  endfacet
  facet normal 0 1 0
    outer loop
      vertex -47.25 -36 14.5
      vertex -49.65 -36 15.5
      vertex -47.6136 -36 15.5
    endloop
  endfacet
  facet normal 0 1 0
    outer loop
      vertex -49.65 -36 2.35
      vertex -47.25 -36 14.5
      vertex -47.25 -36 2.4
    endloop
  endfacet
  facet normal 0 1 0
    outer loop
      vertex -47.25 -36 14.5
      vertex -49.65 -36 2.35
      vertex -49.65 -36 15.5
    endloop
  endfacet
  facet normal 0 1 0
    outer loop
      vertex -49.65 -36 2.35
      vertex -47.25 -36 2.4
      vertex -47.2 -36 2.35
    endloop
  endfacet
  facet normal 1 -0 0
    outer loop
      vertex 47.2 -36 2.4
      vertex 47.2 36 2.35
      vertex 47.2 36 2.4
    endloop
  endfacet
  facet normal 1 0 0
    outer loop
      vertex 47.2 36 2.35
      vertex 47.2 -36 2.4
      vertex 47.2 -36 2.35
    endloop
  endfacet
  facet normal 0 -1 0
    outer loop
      vertex 47.2 36 2.4
      vertex 47.2 36 2.35
      vertex 47.25 36 2.4
    endloop
  endfacet
  facet normal 0 -1 0
    outer loop
      vertex 47.25 36 14.5
      vertex 49.65 36 15.5
      vertex 47.6136 36 15.5
    endloop
  endfacet
  facet normal 0 -1 0
    outer loop
      vertex 49.65 36 2.35
      vertex 47.25 36 14.5
      vertex 47.25 36 2.4
    endloop
  endfacet
  facet normal 0 -1 0
    outer loop
      vertex 47.25 36 14.5
      vertex 49.65 36 2.35
      vertex 49.65 36 15.5
    endloop
  endfacet
  facet normal 0 -1 0
    outer loop
      vertex 49.65 36 2.35
      vertex 47.25 36 2.4
      vertex 47.2 36 2.35
    endloop
  endfacet
  facet normal -0 0 1
    outer loop
      vertex 47.2 36 2.35
      vertex 49.65 -36 2.35
      vertex 49.65 36 2.35
    endloop
  endfacet
  facet normal 0 0 1
    outer loop
      vertex 49.65 -36 2.35
      vertex 47.2 36 2.35
      vertex 47.2 -36 2.35
    endloop
  endfacet
  facet normal 0 1 0
    outer loop
      vertex 49.65 -36 15.5
      vertex 47.25 -36 14.5
      vertex 47.6136 -36 15.5
    endloop
  endfacet
  facet normal 0 1 -0
    outer loop
      vertex 49.65 -36 2.35
      vertex 47.25 -36 14.5
      vertex 49.65 -36 15.5
    endloop
  endfacet
  facet normal 0 1 0
    outer loop
      vertex 47.25 -36 14.5
      vertex 49.65 -36 2.35
      vertex 47.25 -36 2.4
    endloop
  endfacet
  facet normal 0 1 0
    outer loop
      vertex 47.2 -36 2.35
      vertex 47.25 -36 2.4
      vertex 49.65 -36 2.35
    endloop
  endfacet
  facet normal 0 1 0
    outer loop
      vertex 47.25 -36 2.4
      vertex 47.2 -36 2.35
      vertex 47.2 -36 2.4
    endloop
  endfacet
  facet normal 0 -1 0
    outer loop
      vertex -45.15 -49.65 0
      vertex 45.15 -49.65 15.5
      vertex -45.15 -49.65 15.5
    endloop
  endfacet
  facet normal 0 -1 -0
    outer loop
      vertex 45.15 -49.65 15.5
      vertex -45.15 -49.65 0
      vertex 45.15 -49.65 0
    endloop
  endfacet
  facet normal 0.0654027 -0.997859 0
    outer loop
      vertex 45.15 -49.65 0
      vertex 45.7374 -49.6115 15.5
      vertex 45.15 -49.65 15.5
    endloop
  endfacet
  facet normal 0.0654027 -0.997859 0
    outer loop
      vertex 45.7374 -49.6115 15.5
      vertex 45.15 -49.65 0
      vertex 45.7374 -49.6115 0
    endloop
  endfacet
  facet normal 0.195038 -0.980796 0
    outer loop
      vertex 45.7374 -49.6115 0
      vertex 46.3147 -49.4967 15.5
      vertex 45.7374 -49.6115 15.5
    endloop
  endfacet
  facet normal 0.195038 -0.980796 0
    outer loop
      vertex 46.3147 -49.4967 15.5
      vertex 45.7374 -49.6115 0
      vertex 46.3147 -49.4967 0
    endloop
  endfacet
  facet normal -0.0654027 0.997859 0
    outer loop
      vertex -45.15 49.65 0
      vertex -45.7374 49.6115 15.5
      vertex -45.15 49.65 15.5
    endloop
  endfacet
  facet normal -0.0654027 0.997859 0
    outer loop
      vertex -45.7374 49.6115 15.5
      vertex -45.15 49.65 0
      vertex -45.7374 49.6115 0
    endloop
  endfacet
  facet normal 1 0 0
    outer loop
      vertex 49.65 -36 15.5
      vertex 49.65 -45.15 15.5
      vertex 49.65 -36 2.35
    endloop
  endfacet
  facet normal 1 0 0
    outer loop
      vertex 49.65 36 2.35
      vertex 49.65 45.15 15.5
      vertex 49.65 36 15.5
    endloop
  endfacet
  facet normal 1 0 0
    outer loop
      vertex 49.65 45.15 15.5
      vertex 49.65 36 2.35
      vertex 49.65 45.15 0
    endloop
  endfacet
  facet normal 1 -0 0
    outer loop
      vertex 49.65 -36 2.35
      vertex 49.65 45.15 0
      vertex 49.65 36 2.35
    endloop
  endfacet
  facet normal 1 0 0
    outer loop
      vertex 49.65 -36 2.35
      vertex 49.65 -45.15 0
      vertex 49.65 45.15 0
    endloop
  endfacet
  facet normal 1 0 0
    outer loop
      vertex 49.65 -45.15 0
      vertex 49.65 -36 2.35
      vertex 49.65 -45.15 15.5
    endloop
  endfacet
  facet normal -0.997859 -0.0654027 0
    outer loop
      vertex -49.6115 -45.7374 0
      vertex -49.65 -45.15 15.5
      vertex -49.65 -45.15 0
    endloop
  endfacet
  facet normal -0.997859 -0.0654027 0
    outer loop
      vertex -49.65 -45.15 15.5
      vertex -49.6115 -45.7374 0
      vertex -49.6115 -45.7374 15.5
    endloop
  endfacet
  facet normal -0 0 1
    outer loop
      vertex -49.65 -45.15 15.5
      vertex -47.6136 -47.6136 15.5
      vertex -47.6136 -36 15.5
    endloop
  endfacet
  facet normal -0 -0 1
    outer loop
      vertex -49.6115 -45.7374 15.5
      vertex -47.6136 -47.6136 15.5
      vertex -49.65 -45.15 15.5
    endloop
  endfacet
  facet normal 0 0 1
    outer loop
      vertex -47.6136 -47.6136 15.5
      vertex -48.332 -48.332 15.5
      vertex -47.8894 -48.7201 15.5
    endloop
  endfacet
  facet normal 0 0 1
    outer loop
      vertex -47.6136 -47.6136 15.5
      vertex -48.7201 -47.8894 15.5
      vertex -48.332 -48.332 15.5
    endloop
  endfacet
  facet normal 0 0 1
    outer loop
      vertex -47.6136 -47.6136 15.5
      vertex -49.0471 -47.4 15.5
      vertex -48.7201 -47.8894 15.5
    endloop
  endfacet
  facet normal 0 0 1
    outer loop
      vertex -47.6136 -47.6136 15.5
      vertex -49.3074 -46.8721 15.5
      vertex -49.0471 -47.4 15.5
    endloop
  endfacet
  facet normal 0 0 1
    outer loop
      vertex -47.6136 -47.6136 15.5
      vertex -49.4967 -46.3147 15.5
      vertex -49.3074 -46.8721 15.5
    endloop
  endfacet
  facet normal 0 0 1
    outer loop
      vertex -49.65 -45.15 15.5
      vertex -47.6136 -36 15.5
      vertex -49.65 -36 15.5
    endloop
  endfacet
  facet normal 0 0 1
    outer loop
      vertex -47.6136 -47.6136 15.5
      vertex -49.6115 -45.7374 15.5
      vertex -49.4967 -46.3147 15.5
    endloop
  endfacet
  facet normal -0 0 1
    outer loop
      vertex 47.6136 -36 15.5
      vertex 49.65 -45.15 15.5
      vertex 49.65 -36 15.5
    endloop
  endfacet
  facet normal 0 0 1
    outer loop
      vertex 47.6136 -47.6136 15.5
      vertex 49.65 -45.15 15.5
      vertex 47.6136 -36 15.5
    endloop
  endfacet
  facet normal 0 0 1
    outer loop
      vertex 49.65 -45.15 15.5
      vertex 47.6136 -47.6136 15.5
      vertex 49.6115 -45.7374 15.5
    endloop
  endfacet
  facet normal 0 0 1
    outer loop
      vertex 49.6115 -45.7374 15.5
      vertex 47.6136 -47.6136 15.5
      vertex 49.4967 -46.3147 15.5
    endloop
  endfacet
  facet normal 0 0 1
    outer loop
      vertex 49.4967 -46.3147 15.5
      vertex 47.6136 -47.6136 15.5
      vertex 49.3074 -46.8721 15.5
    endloop
  endfacet
  facet normal 0 0 1
    outer loop
      vertex 49.0471 -47.4 15.5
      vertex 47.6136 -47.6136 15.5
      vertex 48.7201 -47.8894 15.5
    endloop
  endfacet
  facet normal 0 0 1
    outer loop
      vertex 48.7201 -47.8894 15.5
      vertex 47.6136 -47.6136 15.5
      vertex 48.332 -48.332 15.5
    endloop
  endfacet
  facet normal 0 0 1
    outer loop
      vertex 49.3074 -46.8721 15.5
      vertex 47.6136 -47.6136 15.5
      vertex 49.0471 -47.4 15.5
    endloop
  endfacet
  facet normal 0 0 1
    outer loop
      vertex 48.332 -48.332 15.5
      vertex 47.6136 -47.6136 15.5
      vertex 47.8894 -48.7201 15.5
    endloop
  endfacet
  facet normal 0 0 1
    outer loop
      vertex 47.6136 -47.6136 15.5
      vertex 47.4 -49.0471 15.5
      vertex 47.8894 -48.7201 15.5
    endloop
  endfacet
  facet normal 0 0 1
    outer loop
      vertex 47.6136 -47.6136 15.5
      vertex 46.8721 -49.3074 15.5
      vertex 47.4 -49.0471 15.5
    endloop
  endfacet
  facet normal 0 0 1
    outer loop
      vertex 47.6136 -47.6136 15.5
      vertex 46.3147 -49.4967 15.5
      vertex 46.8721 -49.3074 15.5
    endloop
  endfacet
  facet normal 0 0 1
    outer loop
      vertex 47.6136 -47.6136 15.5
      vertex 45.7374 -49.6115 15.5
      vertex 46.3147 -49.4967 15.5
    endloop
  endfacet
  facet normal 0 0 1
    outer loop
      vertex 47.6136 -47.6136 15.5
      vertex 45.15 -49.65 15.5
      vertex 45.7374 -49.6115 15.5
    endloop
  endfacet
  facet normal 0 0 1
    outer loop
      vertex 47.6136 -47.6136 15.5
      vertex -45.15 -49.65 15.5
      vertex 45.15 -49.65 15.5
    endloop
  endfacet
  facet normal -0 0 1
    outer loop
      vertex -47.6136 -47.6136 15.5
      vertex -45.15 -49.65 15.5
      vertex 47.6136 -47.6136 15.5
    endloop
  endfacet
  facet normal 0 0 1
    outer loop
      vertex -45.15 -49.65 15.5
      vertex -47.6136 -47.6136 15.5
      vertex -45.7374 -49.6115 15.5
    endloop
  endfacet
  facet normal 0 0 1
    outer loop
      vertex -45.7374 -49.6115 15.5
      vertex -47.6136 -47.6136 15.5
      vertex -46.3147 -49.4967 15.5
    endloop
  endfacet
  facet normal 0 0 1
    outer loop
      vertex -46.3147 -49.4967 15.5
      vertex -47.6136 -47.6136 15.5
      vertex -46.8721 -49.3074 15.5
    endloop
  endfacet
  facet normal 0 0 1
    outer loop
      vertex -46.8721 -49.3074 15.5
      vertex -47.6136 -47.6136 15.5
      vertex -47.4 -49.0471 15.5
    endloop
  endfacet
  facet normal 0 0 1
    outer loop
      vertex -47.4 -49.0471 15.5
      vertex -47.6136 -47.6136 15.5
      vertex -47.8894 -48.7201 15.5
    endloop
  endfacet
  facet normal 0 0 1
    outer loop
      vertex 47.4 49.0471 15.5
      vertex 47.6136 47.6136 15.5
      vertex 47.8894 48.7201 15.5
    endloop
  endfacet
  facet normal 0 0 1
    outer loop
      vertex 46.8721 49.3074 15.5
      vertex 47.6136 47.6136 15.5
      vertex 47.4 49.0471 15.5
    endloop
  endfacet
  facet normal 0 0 1
    outer loop
      vertex 46.3147 49.4967 15.5
      vertex 47.6136 47.6136 15.5
      vertex 46.8721 49.3074 15.5
    endloop
  endfacet
  facet normal 0 0 1
    outer loop
      vertex 45.7374 49.6115 15.5
      vertex 47.6136 47.6136 15.5
      vertex 46.3147 49.4967 15.5
    endloop
  endfacet
  facet normal 0 0 1
    outer loop
      vertex 45.15 49.65 15.5
      vertex 47.6136 47.6136 15.5
      vertex 45.7374 49.6115 15.5
    endloop
  endfacet
  facet normal -0 0 1
    outer loop
      vertex -45.15 49.65 15.5
      vertex 47.6136 47.6136 15.5
      vertex 45.15 49.65 15.5
    endloop
  endfacet
  facet normal 0 0 1
    outer loop
      vertex -47.6136 47.6136 15.5
      vertex -45.15 49.65 15.5
      vertex -45.7374 49.6115 15.5
    endloop
  endfacet
  facet normal 0 0 1
    outer loop
      vertex -47.6136 47.6136 15.5
      vertex -45.7374 49.6115 15.5
      vertex -46.3147 49.4967 15.5
    endloop
  endfacet
  facet normal 0 0 1
    outer loop
      vertex -47.6136 47.6136 15.5
      vertex -46.3147 49.4967 15.5
      vertex -46.8721 49.3074 15.5
    endloop
  endfacet
  facet normal 0 0 1
    outer loop
      vertex -47.6136 47.6136 15.5
      vertex -46.8721 49.3074 15.5
      vertex -47.4 49.0471 15.5
    endloop
  endfacet
  facet normal 0 0 1
    outer loop
      vertex -45.15 49.65 15.5
      vertex -47.6136 47.6136 15.5
      vertex 47.6136 47.6136 15.5
    endloop
  endfacet
  facet normal -0 0 1
    outer loop
      vertex -47.8894 48.7201 15.5
      vertex -47.6136 47.6136 15.5
      vertex -47.4 49.0471 15.5
    endloop
  endfacet
  facet normal -0 0 1
    outer loop
      vertex -48.332 48.332 15.5
      vertex -47.6136 47.6136 15.5
      vertex -47.8894 48.7201 15.5
    endloop
  endfacet
  facet normal -0 0 1
    outer loop
      vertex -48.7201 47.8894 15.5
      vertex -47.6136 47.6136 15.5
      vertex -48.332 48.332 15.5
    endloop
  endfacet
  facet normal 0 0 1
    outer loop
      vertex -49.0471 47.4 15.5
      vertex -47.6136 47.6136 15.5
      vertex -48.7201 47.8894 15.5
    endloop
  endfacet
  facet normal 0 0 1
    outer loop
      vertex -49.3074 46.8721 15.5
      vertex -47.6136 47.6136 15.5
      vertex -49.0471 47.4 15.5
    endloop
  endfacet
  facet normal 0 0 1
    outer loop
      vertex -49.4967 46.3147 15.5
      vertex -47.6136 47.6136 15.5
      vertex -49.3074 46.8721 15.5
    endloop
  endfacet
  facet normal 0 0 1
    outer loop
      vertex -49.6115 45.7374 15.5
      vertex -47.6136 47.6136 15.5
      vertex -49.4967 46.3147 15.5
    endloop
  endfacet
  facet normal 0 0 1
    outer loop
      vertex -47.6136 47.6136 15.5
      vertex -49.6115 45.7374 15.5
      vertex -49.65 45.15 15.5
    endloop
  endfacet
  facet normal 0 0 1
    outer loop
      vertex -47.6136 47.6136 15.5
      vertex -49.65 45.15 15.5
      vertex -47.6136 36 15.5
    endloop
  endfacet
  facet normal 0 0 1
    outer loop
      vertex -47.6136 36 15.5
      vertex -49.65 45.15 15.5
      vertex -49.65 36 15.5
    endloop
  endfacet
  facet normal 0 0 1
    outer loop
      vertex 47.6136 47.6136 15.5
      vertex 49.65 45.15 15.5
      vertex 49.6115 45.7374 15.5
    endloop
  endfacet
  facet normal 0 0 1
    outer loop
      vertex 47.6136 47.6136 15.5
      vertex 49.6115 45.7374 15.5
      vertex 49.4967 46.3147 15.5
    endloop
  endfacet
  facet normal 0 0 1
    outer loop
      vertex 47.6136 47.6136 15.5
      vertex 49.4967 46.3147 15.5
      vertex 49.3074 46.8721 15.5
    endloop
  endfacet
  facet normal 0 0 1
    outer loop
      vertex 47.6136 47.6136 15.5
      vertex 49.3074 46.8721 15.5
      vertex 49.0471 47.4 15.5
    endloop
  endfacet
  facet normal -0 0 1
    outer loop
      vertex 47.6136 47.6136 15.5
      vertex 49.0471 47.4 15.5
      vertex 48.7201 47.8894 15.5
    endloop
  endfacet
  facet normal 0 0 1
    outer loop
      vertex 47.6136 47.6136 15.5
      vertex 48.7201 47.8894 15.5
      vertex 48.332 48.332 15.5
    endloop
  endfacet
  facet normal 0 0 1
    outer loop
      vertex 47.6136 47.6136 15.5
      vertex 48.332 48.332 15.5
      vertex 47.8894 48.7201 15.5
    endloop
  endfacet
  facet normal 0 0 1
    outer loop
      vertex 49.65 45.15 15.5
      vertex 47.6136 47.6136 15.5
      vertex 47.6136 36 15.5
    endloop
  endfacet
  facet normal 0 0 1
    outer loop
      vertex 49.65 45.15 15.5
      vertex 47.6136 36 15.5
      vertex 49.65 36 15.5
    endloop
  endfacet
  facet normal -0.0654027 -0.997859 0
    outer loop
      vertex -45.7374 -49.6115 0
      vertex -45.15 -49.65 15.5
      vertex -45.7374 -49.6115 15.5
    endloop
  endfacet
  facet normal -0.0654027 -0.997859 -0
    outer loop
      vertex -45.15 -49.65 15.5
      vertex -45.7374 -49.6115 0
      vertex -45.15 -49.65 0
    endloop
  endfacet
  facet normal 0 1 -0
    outer loop
      vertex 45.15 49.65 0
      vertex -45.15 49.65 15.5
      vertex 45.15 49.65 15.5
    endloop
  endfacet
  facet normal 0 1 0
    outer loop
      vertex -45.15 49.65 15.5
      vertex 45.15 49.65 0
      vertex -45.15 49.65 0
    endloop
  endfacet
  facet normal -1 0 0
    outer loop
      vertex -49.65 45.15 0
      vertex -49.65 36 2.35
      vertex -49.65 45.15 15.5
    endloop
  endfacet
  facet normal -1 0 0
    outer loop
      vertex -49.65 45.15 0
      vertex -49.65 -36 2.35
      vertex -49.65 36 2.35
    endloop
  endfacet
  facet normal -1 0 0
    outer loop
      vertex -49.65 -45.15 0
      vertex -49.65 -36 2.35
      vertex -49.65 45.15 0
    endloop
  endfacet
  facet normal -1 0 0
    outer loop
      vertex -49.65 -45.15 15.5
      vertex -49.65 -36 2.35
      vertex -49.65 -45.15 0
    endloop
  endfacet
  facet normal -1 0 0
    outer loop
      vertex -49.65 -36 2.35
      vertex -49.65 -45.15 15.5
      vertex -49.65 -36 15.5
    endloop
  endfacet
  facet normal -1 -0 0
    outer loop
      vertex -49.65 45.15 15.5
      vertex -49.65 36 2.35
      vertex -49.65 36 15.5
    endloop
  endfacet
  facet normal -0.555562 -0.831475 0
    outer loop
      vertex -47.8894 -48.7201 0
      vertex -47.4 -49.0471 15.5
      vertex -47.8894 -48.7201 15.5
    endloop
  endfacet
  facet normal -0.555562 -0.831475 -0
    outer loop
      vertex -47.4 -49.0471 15.5
      vertex -47.8894 -48.7201 0
      vertex -47.4 -49.0471 0
    endloop
  endfacet
  facet normal 0.831475 -0.555562 0
    outer loop
      vertex 48.7201 -47.8894 15.5
      vertex 49.0471 -47.4 0
      vertex 49.0471 -47.4 15.5
    endloop
  endfacet
  facet normal 0.831475 -0.555562 0
    outer loop
      vertex 49.0471 -47.4 0
      vertex 48.7201 -47.8894 15.5
      vertex 48.7201 -47.8894 0
    endloop
  endfacet
  facet normal 0.321574 0.946885 -0
    outer loop
      vertex 46.8721 49.3074 0
      vertex 46.3147 49.4967 15.5
      vertex 46.8721 49.3074 15.5
    endloop
  endfacet
  facet normal 0.321574 0.946885 0
    outer loop
      vertex 46.3147 49.4967 15.5
      vertex 46.8721 49.3074 0
      vertex 46.3147 49.4967 0
    endloop
  endfacet
  facet normal -0.997859 0.0654027 0
    outer loop
      vertex -49.65 45.15 0
      vertex -49.6115 45.7374 15.5
      vertex -49.6115 45.7374 0
    endloop
  endfacet
  facet normal -0.997859 0.0654027 0
    outer loop
      vertex -49.6115 45.7374 15.5
      vertex -49.65 45.15 0
      vertex -49.65 45.15 15.5
    endloop
  endfacet
  facet normal -0.896894 -0.442246 0
    outer loop
      vertex -49.0471 -47.4 0
      vertex -49.3074 -46.8721 15.5
      vertex -49.3074 -46.8721 0
    endloop
  endfacet
  facet normal -0.896894 -0.442246 0
    outer loop
      vertex -49.3074 -46.8721 15.5
      vertex -49.0471 -47.4 0
      vertex -49.0471 -47.4 15.5
    endloop
  endfacet
  facet normal -0.442246 -0.896894 0
    outer loop
      vertex -47.4 -49.0471 0
      vertex -46.8721 -49.3074 15.5
      vertex -47.4 -49.0471 15.5
    endloop
  endfacet
  facet normal -0.442246 -0.896894 -0
    outer loop
      vertex -46.8721 -49.3074 15.5
      vertex -47.4 -49.0471 0
      vertex -46.8721 -49.3074 0
    endloop
  endfacet
  facet normal -0.195038 -0.980796 0
    outer loop
      vertex -46.3147 -49.4967 0
      vertex -45.7374 -49.6115 15.5
      vertex -46.3147 -49.4967 15.5
    endloop
  endfacet
  facet normal -0.195038 -0.980796 -0
    outer loop
      vertex -45.7374 -49.6115 15.5
      vertex -46.3147 -49.4967 0
      vertex -45.7374 -49.6115 0
    endloop
  endfacet
  facet normal -0.321574 -0.946885 0
    outer loop
      vertex -46.8721 -49.3074 0
      vertex -46.3147 -49.4967 15.5
      vertex -46.8721 -49.3074 15.5
    endloop
  endfacet
  facet normal -0.321574 -0.946885 -0
    outer loop
      vertex -46.3147 -49.4967 15.5
      vertex -46.8721 -49.3074 0
      vertex -46.3147 -49.4967 0
    endloop
  endfacet
  facet normal 0.946885 -0.321574 0
    outer loop
      vertex 49.3074 -46.8721 15.5
      vertex 49.4967 -46.3147 0
      vertex 49.4967 -46.3147 15.5
    endloop
  endfacet
  facet normal 0.946885 -0.321574 0
    outer loop
      vertex 49.4967 -46.3147 0
      vertex 49.3074 -46.8721 15.5
      vertex 49.3074 -46.8721 0
    endloop
  endfacet
  facet normal 0.659298 0.751882 -0
    outer loop
      vertex 48.332 48.332 0
      vertex 47.8894 48.7201 15.5
      vertex 48.332 48.332 15.5
    endloop
  endfacet
  facet normal 0.659298 0.751882 0
    outer loop
      vertex 47.8894 48.7201 15.5
      vertex 48.332 48.332 0
      vertex 47.8894 48.7201 0
    endloop
  endfacet
  facet normal 0.442246 0.896894 -0
    outer loop
      vertex 47.4 49.0471 0
      vertex 46.8721 49.3074 15.5
      vertex 47.4 49.0471 15.5
    endloop
  endfacet
  facet normal 0.442246 0.896894 0
    outer loop
      vertex 46.8721 49.3074 15.5
      vertex 47.4 49.0471 0
      vertex 46.8721 49.3074 0
    endloop
  endfacet
  facet normal 0.0654027 0.997859 -0
    outer loop
      vertex 45.7374 49.6115 0
      vertex 45.15 49.65 15.5
      vertex 45.7374 49.6115 15.5
    endloop
  endfacet
  facet normal 0.0654027 0.997859 0
    outer loop
      vertex 45.15 49.65 15.5
      vertex 45.7374 49.6115 0
      vertex 45.15 49.65 0
    endloop
  endfacet
  facet normal -0.195038 0.980796 0
    outer loop
      vertex -45.7374 49.6115 0
      vertex -46.3147 49.4967 15.5
      vertex -45.7374 49.6115 15.5
    endloop
  endfacet
  facet normal -0.195038 0.980796 0
    outer loop
      vertex -46.3147 49.4967 15.5
      vertex -45.7374 49.6115 0
      vertex -46.3147 49.4967 0
    endloop
  endfacet
  facet normal -0.442246 0.896894 0
    outer loop
      vertex -46.8721 49.3074 0
      vertex -47.4 49.0471 15.5
      vertex -46.8721 49.3074 15.5
    endloop
  endfacet
  facet normal -0.442246 0.896894 0
    outer loop
      vertex -47.4 49.0471 15.5
      vertex -46.8721 49.3074 0
      vertex -47.4 49.0471 0
    endloop
  endfacet
  facet normal -0.555562 0.831475 0
    outer loop
      vertex -47.4 49.0471 0
      vertex -47.8894 48.7201 15.5
      vertex -47.4 49.0471 15.5
    endloop
  endfacet
  facet normal -0.555562 0.831475 0
    outer loop
      vertex -47.8894 48.7201 15.5
      vertex -47.4 49.0471 0
      vertex -47.8894 48.7201 0
    endloop
  endfacet
  facet normal -0.659298 0.751882 0
    outer loop
      vertex -47.8894 48.7201 0
      vertex -48.332 48.332 15.5
      vertex -47.8894 48.7201 15.5
    endloop
  endfacet
  facet normal -0.659298 0.751882 0
    outer loop
      vertex -48.332 48.332 15.5
      vertex -47.8894 48.7201 0
      vertex -48.332 48.332 0
    endloop
  endfacet
  facet normal -0.946885 -0.321574 0
    outer loop
      vertex -49.3074 -46.8721 0
      vertex -49.4967 -46.3147 15.5
      vertex -49.4967 -46.3147 0
    endloop
  endfacet
  facet normal -0.946885 -0.321574 0
    outer loop
      vertex -49.4967 -46.3147 15.5
      vertex -49.3074 -46.8721 0
      vertex -49.3074 -46.8721 15.5
    endloop
  endfacet
  facet normal -0.659298 -0.751882 0
    outer loop
      vertex -48.332 -48.332 0
      vertex -47.8894 -48.7201 15.5
      vertex -48.332 -48.332 15.5
    endloop
  endfacet
  facet normal -0.659298 -0.751882 -0
    outer loop
      vertex -47.8894 -48.7201 15.5
      vertex -48.332 -48.332 0
      vertex -47.8894 -48.7201 0
    endloop
  endfacet
  facet normal 0.555562 -0.831475 0
    outer loop
      vertex 47.4 -49.0471 0
      vertex 47.8894 -48.7201 15.5
      vertex 47.4 -49.0471 15.5
    endloop
  endfacet
  facet normal 0.555562 -0.831475 0
    outer loop
      vertex 47.8894 -48.7201 15.5
      vertex 47.4 -49.0471 0
      vertex 47.8894 -48.7201 0
    endloop
  endfacet
  facet normal 0.555562 0.831475 -0
    outer loop
      vertex 47.8894 48.7201 0
      vertex 47.4 49.0471 15.5
      vertex 47.8894 48.7201 15.5
    endloop
  endfacet
  facet normal 0.555562 0.831475 0
    outer loop
      vertex 47.4 49.0471 15.5
      vertex 47.8894 48.7201 0
      vertex 47.4 49.0471 0
    endloop
  endfacet
  facet normal 0.195038 0.980796 -0
    outer loop
      vertex 46.3147 49.4967 0
      vertex 45.7374 49.6115 15.5
      vertex 46.3147 49.4967 15.5
    endloop
  endfacet
  facet normal 0.195038 0.980796 0
    outer loop
      vertex 45.7374 49.6115 15.5
      vertex 46.3147 49.4967 0
      vertex 45.7374 49.6115 0
    endloop
  endfacet
  facet normal -0.321574 0.946885 0
    outer loop
      vertex -46.3147 49.4967 0
      vertex -46.8721 49.3074 15.5
      vertex -46.3147 49.4967 15.5
    endloop
  endfacet
  facet normal -0.321574 0.946885 0
    outer loop
      vertex -46.8721 49.3074 15.5
      vertex -46.3147 49.4967 0
      vertex -46.8721 49.3074 0
    endloop
  endfacet
  facet normal -0.751882 0.659298 0
    outer loop
      vertex -48.7201 47.8894 0
      vertex -48.332 48.332 15.5
      vertex -48.332 48.332 0
    endloop
  endfacet
  facet normal -0.751882 0.659298 0
    outer loop
      vertex -48.332 48.332 15.5
      vertex -48.7201 47.8894 0
      vertex -48.7201 47.8894 15.5
    endloop
  endfacet
  facet normal -0.896894 0.442246 0
    outer loop
      vertex -49.3074 46.8721 0
      vertex -49.0471 47.4 15.5
      vertex -49.0471 47.4 0
    endloop
  endfacet
  facet normal -0.896894 0.442246 0
    outer loop
      vertex -49.0471 47.4 15.5
      vertex -49.3074 46.8721 0
      vertex -49.3074 46.8721 15.5
    endloop
  endfacet
  facet normal -0.831475 0.555562 0
    outer loop
      vertex -49.0471 47.4 0
      vertex -48.7201 47.8894 15.5
      vertex -48.7201 47.8894 0
    endloop
  endfacet
  facet normal -0.831475 0.555562 0
    outer loop
      vertex -48.7201 47.8894 15.5
      vertex -49.0471 47.4 0
      vertex -49.0471 47.4 15.5
    endloop
  endfacet
  facet normal -0.831475 -0.555562 0
    outer loop
      vertex -48.7201 -47.8894 0
      vertex -49.0471 -47.4 15.5
      vertex -49.0471 -47.4 0
    endloop
  endfacet
  facet normal -0.831475 -0.555562 0
    outer loop
      vertex -49.0471 -47.4 15.5
      vertex -48.7201 -47.8894 0
      vertex -48.7201 -47.8894 15.5
    endloop
  endfacet
  facet normal 0 0 -1
    outer loop
      vertex 45.15 -49.65 0
      vertex 49.65 -45.15 0
      vertex 49.6115 -45.7374 0
    endloop
  endfacet
  facet normal 0 0 -1
    outer loop
      vertex 49.65 -45.15 0
      vertex 41 -38 0
      vertex 49.65 45.15 0
    endloop
  endfacet
  facet normal 0 0 -1
    outer loop
      vertex 45.15 -49.65 0
      vertex 49.6115 -45.7374 0
      vertex 49.4967 -46.3147 0
    endloop
  endfacet
  facet normal 0 0 -1
    outer loop
      vertex 41 38 0
      vertex 49.65 45.15 0
      vertex 41 -38 0
    endloop
  endfacet
  facet normal 0 0 -1
    outer loop
      vertex 45.15 -49.65 0
      vertex 49.4967 -46.3147 0
      vertex 49.3074 -46.8721 0
    endloop
  endfacet
  facet normal 0 0 -1
    outer loop
      vertex 40.9743 38.3916 0
      vertex 49.65 45.15 0
      vertex 41 38 0
    endloop
  endfacet
  facet normal 0 0 -1
    outer loop
      vertex 45.15 -49.65 0
      vertex 49.3074 -46.8721 0
      vertex 49.0471 -47.4 0
    endloop
  endfacet
  facet normal 0 0 -1
    outer loop
      vertex 40.8978 38.7765 0
      vertex 49.65 45.15 0
      vertex 40.9743 38.3916 0
    endloop
  endfacet
  facet normal 0 0 -1
    outer loop
      vertex 45.15 -49.65 0
      vertex 49.0471 -47.4 0
      vertex 48.7201 -47.8894 0
    endloop
  endfacet
  facet normal 0 0 -1
    outer loop
      vertex 40.7716 39.1481 0
      vertex 49.65 45.15 0
      vertex 40.8978 38.7765 0
    endloop
  endfacet
  facet normal 0 0 -1
    outer loop
      vertex 45.15 -49.65 0
      vertex 48.7201 -47.8894 0
      vertex 48.332 -48.332 0
    endloop
  endfacet
  facet normal 0 0 -1
    outer loop
      vertex 40.5981 39.5 0
      vertex 49.65 45.15 0
      vertex 40.7716 39.1481 0
    endloop
  endfacet
  facet normal 0 0 -1
    outer loop
      vertex 45.15 -49.65 0
      vertex 48.332 -48.332 0
      vertex 47.8894 -48.7201 0
    endloop
  endfacet
  facet normal 0 0 -1
    outer loop
      vertex 40.3801 39.8263 0
      vertex 49.65 45.15 0
      vertex 40.5981 39.5 0
    endloop
  endfacet
  facet normal 0 0 -1
    outer loop
      vertex 45.15 -49.65 0
      vertex 47.8894 -48.7201 0
      vertex 47.4 -49.0471 0
    endloop
  endfacet
  facet normal 0 0 -1
    outer loop
      vertex 40.1213 40.1213 0
      vertex 49.65 45.15 0
      vertex 40.3801 39.8263 0
    endloop
  endfacet
  facet normal 0 0 -1
    outer loop
      vertex 45.15 -49.65 0
      vertex 47.4 -49.0471 0
      vertex 46.8721 -49.3074 0
    endloop
  endfacet
  facet normal 0 -0 -1
    outer loop
      vertex 45.15 49.65 0
      vertex 49.65 45.15 0
      vertex 40.1213 40.1213 0
    endloop
  endfacet
  facet normal 0 0 -1
    outer loop
      vertex 45.15 -49.65 0
      vertex 46.8721 -49.3074 0
      vertex 46.3147 -49.4967 0
    endloop
  endfacet
  facet normal 0 0 -1
    outer loop
      vertex 49.65 45.15 0
      vertex 45.15 49.65 0
      vertex 49.6115 45.7374 0
    endloop
  endfacet
  facet normal 0 0 -1
    outer loop
      vertex 45.15 -49.65 0
      vertex 46.3147 -49.4967 0
      vertex 45.7374 -49.6115 0
    endloop
  endfacet
  facet normal 0 0 -1
    outer loop
      vertex 49.6115 45.7374 0
      vertex 45.15 49.65 0
      vertex 49.4967 46.3147 0
    endloop
  endfacet
  facet normal -0 0 -1
    outer loop
      vertex 49.65 -45.15 0
      vertex 45.15 -49.65 0
      vertex 40.1213 -40.1213 0
    endloop
  endfacet
  facet normal 0 0 -1
    outer loop
      vertex 49.4967 46.3147 0
      vertex 45.15 49.65 0
      vertex 49.3074 46.8721 0
    endloop
  endfacet
  facet normal 0 0 -1
    outer loop
      vertex 49.3074 46.8721 0
      vertex 45.15 49.65 0
      vertex 49.0471 47.4 0
    endloop
  endfacet
  facet normal 0 0 -1
    outer loop
      vertex 49.65 -45.15 0
      vertex 40.9743 -38.3916 0
      vertex 41 -38 0
    endloop
  endfacet
  facet normal 0 0 -1
    outer loop
      vertex 49.65 -45.15 0
      vertex 40.8978 -38.7765 0
      vertex 40.9743 -38.3916 0
    endloop
  endfacet
  facet normal 0 0 -1
    outer loop
      vertex 49.65 -45.15 0
      vertex 40.7716 -39.1481 0
      vertex 40.8978 -38.7765 0
    endloop
  endfacet
  facet normal 0 0 -1
    outer loop
      vertex 49.65 -45.15 0
      vertex 40.5981 -39.5 0
      vertex 40.7716 -39.1481 0
    endloop
  endfacet
  facet normal 0 0 -1
    outer loop
      vertex 49.65 -45.15 0
      vertex 40.3801 -39.8263 0
      vertex 40.5981 -39.5 0
    endloop
  endfacet
  facet normal 0 0 -1
    outer loop
      vertex 49.65 -45.15 0
      vertex 40.1213 -40.1213 0
      vertex 40.3801 -39.8263 0
    endloop
  endfacet
  facet normal 0 0 -1
    outer loop
      vertex 45.15 -49.65 0
      vertex 39.8263 -40.3801 0
      vertex 40.1213 -40.1213 0
    endloop
  endfacet
  facet normal 0 0 -1
    outer loop
      vertex 45.15 -49.65 0
      vertex 39.5 -40.5981 0
      vertex 39.8263 -40.3801 0
    endloop
  endfacet
  facet normal 0 0 -1
    outer loop
      vertex 45.15 -49.65 0
      vertex 39.1481 -40.7716 0
      vertex 39.5 -40.5981 0
    endloop
  endfacet
  facet normal 0 0 -1
    outer loop
      vertex 45.15 -49.65 0
      vertex 38.7765 -40.8978 0
      vertex 39.1481 -40.7716 0
    endloop
  endfacet
  facet normal 0 0 -1
    outer loop
      vertex 45.15 -49.65 0
      vertex 38.3916 -40.9743 0
      vertex 38.7765 -40.8978 0
    endloop
  endfacet
  facet normal 0 0 -1
    outer loop
      vertex 45.15 -49.65 0
      vertex 38 -41 0
      vertex 38.3916 -40.9743 0
    endloop
  endfacet
  facet normal 0 0 -1
    outer loop
      vertex 45.15 -49.65 0
      vertex -38 -41 0
      vertex 38 -41 0
    endloop
  endfacet
  facet normal 0 0 -1
    outer loop
      vertex -45.15 -49.65 0
      vertex -38 -41 0
      vertex 45.15 -49.65 0
    endloop
  endfacet
  facet normal -0 0 -1
    outer loop
      vertex -40.9743 -38.3916 0
      vertex -49.65 -45.15 0
      vertex -41 -38 0
    endloop
  endfacet
  facet normal -0 0 -1
    outer loop
      vertex -40.8978 -38.7765 0
      vertex -49.65 -45.15 0
      vertex -40.9743 -38.3916 0
    endloop
  endfacet
  facet normal -0 0 -1
    outer loop
      vertex -40.7716 -39.1481 0
      vertex -49.65 -45.15 0
      vertex -40.8978 -38.7765 0
    endloop
  endfacet
  facet normal -0 0 -1
    outer loop
      vertex -40.5981 -39.5 0
      vertex -49.65 -45.15 0
      vertex -40.7716 -39.1481 0
    endloop
  endfacet
  facet normal -0 0 -1
    outer loop
      vertex -40.3801 -39.8263 0
      vertex -49.65 -45.15 0
      vertex -40.5981 -39.5 0
    endloop
  endfacet
  facet normal -0 0 -1
    outer loop
      vertex -40.1213 -40.1213 0
      vertex -49.65 -45.15 0
      vertex -40.3801 -39.8263 0
    endloop
  endfacet
  facet normal 0 0 -1
    outer loop
      vertex -49.65 -45.15 0
      vertex -40.1213 -40.1213 0
      vertex -45.15 -49.65 0
    endloop
  endfacet
  facet normal -0 0 -1
    outer loop
      vertex -39.8263 -40.3801 0
      vertex -45.15 -49.65 0
      vertex -40.1213 -40.1213 0
    endloop
  endfacet
  facet normal -0 0 -1
    outer loop
      vertex -39.5 -40.5981 0
      vertex -45.15 -49.65 0
      vertex -39.8263 -40.3801 0
    endloop
  endfacet
  facet normal -0 0 -1
    outer loop
      vertex -39.1481 -40.7716 0
      vertex -45.15 -49.65 0
      vertex -39.5 -40.5981 0
    endloop
  endfacet
  facet normal -0 0 -1
    outer loop
      vertex -38.7765 -40.8978 0
      vertex -45.15 -49.65 0
      vertex -39.1481 -40.7716 0
    endloop
  endfacet
  facet normal -0 0 -1
    outer loop
      vertex -38.3916 -40.9743 0
      vertex -45.15 -49.65 0
      vertex -38.7765 -40.8978 0
    endloop
  endfacet
  facet normal -0 0 -1
    outer loop
      vertex -38 -41 0
      vertex -45.15 -49.65 0
      vertex -38.3916 -40.9743 0
    endloop
  endfacet
  facet normal 0 0 -1
    outer loop
      vertex 48.7201 47.8894 0
      vertex 45.15 49.65 0
      vertex 48.332 48.332 0
    endloop
  endfacet
  facet normal 0 0 -1
    outer loop
      vertex 48.332 48.332 0
      vertex 45.15 49.65 0
      vertex 47.8894 48.7201 0
    endloop
  endfacet
  facet normal 0 0 -1
    outer loop
      vertex 47.8894 48.7201 0
      vertex 45.15 49.65 0
      vertex 47.4 49.0471 0
    endloop
  endfacet
  facet normal 0 0 -1
    outer loop
      vertex 47.4 49.0471 0
      vertex 45.15 49.65 0
      vertex 46.8721 49.3074 0
    endloop
  endfacet
  facet normal 0 0 -1
    outer loop
      vertex 46.8721 49.3074 0
      vertex 45.15 49.65 0
      vertex 46.3147 49.4967 0
    endloop
  endfacet
  facet normal 0 0 -1
    outer loop
      vertex 46.3147 49.4967 0
      vertex 45.15 49.65 0
      vertex 45.7374 49.6115 0
    endloop
  endfacet
  facet normal 0 0 -1
    outer loop
      vertex 49.0471 47.4 0
      vertex 45.15 49.65 0
      vertex 48.7201 47.8894 0
    endloop
  endfacet
  facet normal 0 0 -1
    outer loop
      vertex 39.8263 40.3801 0
      vertex 45.15 49.65 0
      vertex 40.1213 40.1213 0
    endloop
  endfacet
  facet normal 0 0 -1
    outer loop
      vertex 39.5 40.5981 0
      vertex 45.15 49.65 0
      vertex 39.8263 40.3801 0
    endloop
  endfacet
  facet normal 0 0 -1
    outer loop
      vertex 39.1481 40.7716 0
      vertex 45.15 49.65 0
      vertex 39.5 40.5981 0
    endloop
  endfacet
  facet normal 0 0 -1
    outer loop
      vertex 38.7765 40.8978 0
      vertex 45.15 49.65 0
      vertex 39.1481 40.7716 0
    endloop
  endfacet
  facet normal 0 0 -1
    outer loop
      vertex 38.3916 40.9743 0
      vertex 45.15 49.65 0
      vertex 38.7765 40.8978 0
    endloop
  endfacet
  facet normal 0 0 -1
    outer loop
      vertex 38 41 0
      vertex 45.15 49.65 0
      vertex 38.3916 40.9743 0
    endloop
  endfacet
  facet normal 0 0 -1
    outer loop
      vertex -38 41 0
      vertex 45.15 49.65 0
      vertex 38 41 0
    endloop
  endfacet
  facet normal 0 0 -1
    outer loop
      vertex -45.15 49.65 0
      vertex -38 41 0
      vertex -38.3916 40.9743 0
    endloop
  endfacet
  facet normal 0 0 -1
    outer loop
      vertex -38 41 0
      vertex -45.15 49.65 0
      vertex 45.15 49.65 0
    endloop
  endfacet
  facet normal 0 0 -1
    outer loop
      vertex -38.7765 40.8978 0
      vertex -45.15 49.65 0
      vertex -38.3916 40.9743 0
    endloop
  endfacet
  facet normal 0 0 -1
    outer loop
      vertex -39.1481 40.7716 0
      vertex -45.15 49.65 0
      vertex -38.7765 40.8978 0
    endloop
  endfacet
  facet normal 0 0 -1
    outer loop
      vertex -39.5 40.5981 0
      vertex -45.15 49.65 0
      vertex -39.1481 40.7716 0
    endloop
  endfacet
  facet normal 0 0 -1
    outer loop
      vertex -39.8263 40.3801 0
      vertex -45.15 49.65 0
      vertex -39.5 40.5981 0
    endloop
  endfacet
  facet normal 0 0 -1
    outer loop
      vertex -40.1213 40.1213 0
      vertex -45.15 49.65 0
      vertex -39.8263 40.3801 0
    endloop
  endfacet
  facet normal 0 0 -1
    outer loop
      vertex -49.65 45.15 0
      vertex -40.1213 40.1213 0
      vertex -40.3801 39.8263 0
    endloop
  endfacet
  facet normal 0 0 -1
    outer loop
      vertex -49.65 45.15 0
      vertex -40.3801 39.8263 0
      vertex -40.5981 39.5 0
    endloop
  endfacet
  facet normal 0 0 -1
    outer loop
      vertex -49.65 45.15 0
      vertex -40.5981 39.5 0
      vertex -40.7716 39.1481 0
    endloop
  endfacet
  facet normal 0 0 -1
    outer loop
      vertex -49.65 45.15 0
      vertex -40.7716 39.1481 0
      vertex -40.8978 38.7765 0
    endloop
  endfacet
  facet normal 0 0 -1
    outer loop
      vertex -49.65 45.15 0
      vertex -40.8978 38.7765 0
      vertex -40.9743 38.3916 0
    endloop
  endfacet
  facet normal 0 0 -1
    outer loop
      vertex -49.65 45.15 0
      vertex -40.9743 38.3916 0
      vertex -41 38 0
    endloop
  endfacet
  facet normal -0 0 -1
    outer loop
      vertex -41 -38 0
      vertex -49.65 -45.15 0
      vertex -41 38 0
    endloop
  endfacet
  facet normal 0 0 -1
    outer loop
      vertex -49.65 -45.15 0
      vertex -45.15 -49.65 0
      vertex -45.7374 -49.6115 0
    endloop
  endfacet
  facet normal 0 0 -1
    outer loop
      vertex -49.65 45.15 0
      vertex -41 38 0
      vertex -49.65 -45.15 0
    endloop
  endfacet
  facet normal 0 0 -1
    outer loop
      vertex -49.65 -45.15 0
      vertex -45.7374 -49.6115 0
      vertex -46.3147 -49.4967 0
    endloop
  endfacet
  facet normal 0 0 -1
    outer loop
      vertex -40.1213 40.1213 0
      vertex -49.65 45.15 0
      vertex -45.15 49.65 0
    endloop
  endfacet
  facet normal 0 0 -1
    outer loop
      vertex -49.65 -45.15 0
      vertex -46.3147 -49.4967 0
      vertex -46.8721 -49.3074 0
    endloop
  endfacet
  facet normal 0 0 -1
    outer loop
      vertex -45.15 49.65 0
      vertex -49.65 45.15 0
      vertex -45.7374 49.6115 0
    endloop
  endfacet
  facet normal 0 0 -1
    outer loop
      vertex -49.65 -45.15 0
      vertex -46.8721 -49.3074 0
      vertex -47.4 -49.0471 0
    endloop
  endfacet
  facet normal 0 0 -1
    outer loop
      vertex -45.7374 49.6115 0
      vertex -49.65 45.15 0
      vertex -46.3147 49.4967 0
    endloop
  endfacet
  facet normal 0 0 -1
    outer loop
      vertex -49.65 -45.15 0
      vertex -47.4 -49.0471 0
      vertex -47.8894 -48.7201 0
    endloop
  endfacet
  facet normal 0 0 -1
    outer loop
      vertex -46.3147 49.4967 0
      vertex -49.65 45.15 0
      vertex -46.8721 49.3074 0
    endloop
  endfacet
  facet normal 0 0 -1
    outer loop
      vertex -49.65 -45.15 0
      vertex -47.8894 -48.7201 0
      vertex -48.332 -48.332 0
    endloop
  endfacet
  facet normal 0 0 -1
    outer loop
      vertex -46.8721 49.3074 0
      vertex -49.65 45.15 0
      vertex -47.4 49.0471 0
    endloop
  endfacet
  facet normal 0 0 -1
    outer loop
      vertex -49.65 -45.15 0
      vertex -48.332 -48.332 0
      vertex -48.7201 -47.8894 0
    endloop
  endfacet
  facet normal 0 0 -1
    outer loop
      vertex -47.4 49.0471 0
      vertex -49.65 45.15 0
      vertex -47.8894 48.7201 0
    endloop
  endfacet
  facet normal 0 0 -1
    outer loop
      vertex -49.65 -45.15 0
      vertex -48.7201 -47.8894 0
      vertex -49.0471 -47.4 0
    endloop
  endfacet
  facet normal 0 0 -1
    outer loop
      vertex -47.8894 48.7201 0
      vertex -49.65 45.15 0
      vertex -48.332 48.332 0
    endloop
  endfacet
  facet normal 0 0 -1
    outer loop
      vertex -49.65 -45.15 0
      vertex -49.0471 -47.4 0
      vertex -49.3074 -46.8721 0
    endloop
  endfacet
  facet normal 0 0 -1
    outer loop
      vertex -48.332 48.332 0
      vertex -49.65 45.15 0
      vertex -48.7201 47.8894 0
    endloop
  endfacet
  facet normal 0 0 -1
    outer loop
      vertex -49.65 -45.15 0
      vertex -49.3074 -46.8721 0
      vertex -49.4967 -46.3147 0
    endloop
  endfacet
  facet normal 0 0 -1
    outer loop
      vertex -48.7201 47.8894 0
      vertex -49.65 45.15 0
      vertex -49.0471 47.4 0
    endloop
  endfacet
  facet normal 0 0 -1
    outer loop
      vertex -49.65 -45.15 0
      vertex -49.4967 -46.3147 0
      vertex -49.6115 -45.7374 0
    endloop
  endfacet
  facet normal 0 0 -1
    outer loop
      vertex -49.0471 47.4 0
      vertex -49.65 45.15 0
      vertex -49.3074 46.8721 0
    endloop
  endfacet
  facet normal 0 0 -1
    outer loop
      vertex -49.3074 46.8721 0
      vertex -49.65 45.15 0
      vertex -49.4967 46.3147 0
    endloop
  endfacet
  facet normal 0 0 -1
    outer loop
      vertex -49.4967 46.3147 0
      vertex -49.65 45.15 0
      vertex -49.6115 45.7374 0
    endloop
  endfacet
  facet normal 0.946885 0.321574 0
    outer loop
      vertex 49.4967 46.3147 15.5
      vertex 49.3074 46.8721 0
      vertex 49.3074 46.8721 15.5
    endloop
  endfacet
  facet normal 0.946885 0.321574 0
    outer loop
      vertex 49.3074 46.8721 0
      vertex 49.4967 46.3147 15.5
      vertex 49.4967 46.3147 0
    endloop
  endfacet
  facet normal 0.997859 0.0654027 0
    outer loop
      vertex 49.65 45.15 15.5
      vertex 49.6115 45.7374 0
      vertex 49.6115 45.7374 15.5
    endloop
  endfacet
  facet normal 0.997859 0.0654027 0
    outer loop
      vertex 49.6115 45.7374 0
      vertex 49.65 45.15 15.5
      vertex 49.65 45.15 0
    endloop
  endfacet
  facet normal 0.896894 0.442246 0
    outer loop
      vertex 49.3074 46.8721 15.5
      vertex 49.0471 47.4 0
      vertex 49.0471 47.4 15.5
    endloop
  endfacet
  facet normal 0.896894 0.442246 0
    outer loop
      vertex 49.0471 47.4 0
      vertex 49.3074 46.8721 15.5
      vertex 49.3074 46.8721 0
    endloop
  endfacet
  facet normal 0.321574 -0.946885 0
    outer loop
      vertex 46.3147 -49.4967 0
      vertex 46.8721 -49.3074 15.5
      vertex 46.3147 -49.4967 15.5
    endloop
  endfacet
  facet normal 0.321574 -0.946885 0
    outer loop
      vertex 46.8721 -49.3074 15.5
      vertex 46.3147 -49.4967 0
      vertex 46.8721 -49.3074 0
    endloop
  endfacet
  facet normal 0.442246 -0.896894 0
    outer loop
      vertex 46.8721 -49.3074 0
      vertex 47.4 -49.0471 15.5
      vertex 46.8721 -49.3074 15.5
    endloop
  endfacet
  facet normal 0.442246 -0.896894 0
    outer loop
      vertex 47.4 -49.0471 15.5
      vertex 46.8721 -49.3074 0
      vertex 47.4 -49.0471 0
    endloop
  endfacet
  facet normal 0.896894 -0.442246 0
    outer loop
      vertex 49.0471 -47.4 15.5
      vertex 49.3074 -46.8721 0
      vertex 49.3074 -46.8721 15.5
    endloop
  endfacet
  facet normal 0.896894 -0.442246 0
    outer loop
      vertex 49.3074 -46.8721 0
      vertex 49.0471 -47.4 15.5
      vertex 49.0471 -47.4 0
    endloop
  endfacet
  facet normal 0.997859 -0.0654027 0
    outer loop
      vertex 49.6115 -45.7374 15.5
      vertex 49.65 -45.15 0
      vertex 49.65 -45.15 15.5
    endloop
  endfacet
  facet normal 0.997859 -0.0654027 0
    outer loop
      vertex 49.65 -45.15 0
      vertex 49.6115 -45.7374 15.5
      vertex 49.6115 -45.7374 0
    endloop
  endfacet
  facet normal -0.946885 0.321574 0
    outer loop
      vertex -49.4967 46.3147 0
      vertex -49.3074 46.8721 15.5
      vertex -49.3074 46.8721 0
    endloop
  endfacet
  facet normal -0.946885 0.321574 0
    outer loop
      vertex -49.3074 46.8721 15.5
      vertex -49.4967 46.3147 0
      vertex -49.4967 46.3147 15.5
    endloop
  endfacet
  facet normal -0.980796 0.195038 0
    outer loop
      vertex -49.6115 45.7374 0
      vertex -49.4967 46.3147 15.5
      vertex -49.4967 46.3147 0
    endloop
  endfacet
  facet normal -0.980796 0.195038 0
    outer loop
      vertex -49.4967 46.3147 15.5
      vertex -49.6115 45.7374 0
      vertex -49.6115 45.7374 15.5
    endloop
  endfacet
  facet normal -0.751882 -0.659298 0
    outer loop
      vertex -48.332 -48.332 0
      vertex -48.7201 -47.8894 15.5
      vertex -48.7201 -47.8894 0
    endloop
  endfacet
  facet normal -0.751882 -0.659298 0
    outer loop
      vertex -48.7201 -47.8894 15.5
      vertex -48.332 -48.332 0
      vertex -48.332 -48.332 15.5
    endloop
  endfacet
  facet normal -0.980796 -0.195038 0
    outer loop
      vertex -49.4967 -46.3147 0
      vertex -49.6115 -45.7374 15.5
      vertex -49.6115 -45.7374 0
    endloop
  endfacet
  facet normal -0.980796 -0.195038 0
    outer loop
      vertex -49.6115 -45.7374 15.5
      vertex -49.4967 -46.3147 0
      vertex -49.4967 -46.3147 15.5
    endloop
  endfacet
  facet normal 0.980796 0.195038 0
    outer loop
      vertex 49.6115 45.7374 15.5
      vertex 49.4967 46.3147 0
      vertex 49.4967 46.3147 15.5
    endloop
  endfacet
  facet normal 0.980796 0.195038 0
    outer loop
      vertex 49.4967 46.3147 0
      vertex 49.6115 45.7374 15.5
      vertex 49.6115 45.7374 0
    endloop
  endfacet
  facet normal 0.751882 0.659298 0
    outer loop
      vertex 48.7201 47.8894 15.5
      vertex 48.332 48.332 0
      vertex 48.332 48.332 15.5
    endloop
  endfacet
  facet normal 0.751882 0.659298 0
    outer loop
      vertex 48.332 48.332 0
      vertex 48.7201 47.8894 15.5
      vertex 48.7201 47.8894 0
    endloop
  endfacet
  facet normal 0.831475 0.555562 0
    outer loop
      vertex 49.0471 47.4 15.5
      vertex 48.7201 47.8894 0
      vertex 48.7201 47.8894 15.5
    endloop
  endfacet
  facet normal 0.831475 0.555562 0
    outer loop
      vertex 48.7201 47.8894 0
      vertex 49.0471 47.4 15.5
      vertex 49.0471 47.4 0
    endloop
  endfacet
  facet normal 0.751882 -0.659298 0
    outer loop
      vertex 48.332 -48.332 15.5
      vertex 48.7201 -47.8894 0
      vertex 48.7201 -47.8894 15.5
    endloop
  endfacet
  facet normal 0.751882 -0.659298 0
    outer loop
      vertex 48.7201 -47.8894 0
      vertex 48.332 -48.332 15.5
      vertex 48.332 -48.332 0
    endloop
  endfacet
  facet normal 0.659298 -0.751882 0
    outer loop
      vertex 47.8894 -48.7201 0
      vertex 48.332 -48.332 15.5
      vertex 47.8894 -48.7201 15.5
    endloop
  endfacet
  facet normal 0.659298 -0.751882 0
    outer loop
      vertex 48.332 -48.332 15.5
      vertex 47.8894 -48.7201 0
      vertex 48.332 -48.332 0
    endloop
  endfacet
  facet normal 0.980796 -0.195038 0
    outer loop
      vertex 49.4967 -46.3147 15.5
      vertex 49.6115 -45.7374 0
      vertex 49.6115 -45.7374 15.5
    endloop
  endfacet
  facet normal 0.980796 -0.195038 0
    outer loop
      vertex 49.6115 -45.7374 0
      vertex 49.4967 -46.3147 15.5
      vertex 49.4967 -46.3147 0
    endloop
  endfacet
  facet normal 0 0 1
    outer loop
      vertex 47.25 47.25 2.4
      vertex 47.2 36 2.4
      vertex 47.25 36 2.4
    endloop
  endfacet
  facet normal 0 0 1
    outer loop
      vertex 47.2 36 2.4
      vertex 41 38 2.4
      vertex 47.2 -36 2.4
    endloop
  endfacet
  facet normal -0 0 1
    outer loop
      vertex 40.7716 39.1481 2.4
      vertex 47.2 36 2.4
      vertex 47.25 47.25 2.4
    endloop
  endfacet
  facet normal 0 0 1
    outer loop
      vertex 47.2 36 2.4
      vertex 40.9743 38.3916 2.4
      vertex 41 38 2.4
    endloop
  endfacet
  facet normal 0 0 1
    outer loop
      vertex 47.2 36 2.4
      vertex 40.8978 38.7765 2.4
      vertex 40.9743 38.3916 2.4
    endloop
  endfacet
  facet normal 0 0 1
    outer loop
      vertex 47.2 36 2.4
      vertex 40.7716 39.1481 2.4
      vertex 40.8978 38.7765 2.4
    endloop
  endfacet
  facet normal 0 0 1
    outer loop
      vertex 47.25 47.25 2.4
      vertex 40.5981 39.5 2.4
      vertex 40.7716 39.1481 2.4
    endloop
  endfacet
  facet normal 0 0 1
    outer loop
      vertex 47.25 47.25 2.4
      vertex 40.3801 39.8263 2.4
      vertex 40.5981 39.5 2.4
    endloop
  endfacet
  facet normal 0 0 1
    outer loop
      vertex 47.25 47.25 2.4
      vertex 40.1213 40.1213 2.4
      vertex 40.3801 39.8263 2.4
    endloop
  endfacet
  facet normal 0 0 1
    outer loop
      vertex 47.25 47.25 2.4
      vertex 39.8263 40.3801 2.4
      vertex 40.1213 40.1213 2.4
    endloop
  endfacet
  facet normal 0 0 1
    outer loop
      vertex 47.25 47.25 2.4
      vertex 39.5 40.5981 2.4
      vertex 39.8263 40.3801 2.4
    endloop
  endfacet
  facet normal 0 0 1
    outer loop
      vertex 47.25 47.25 2.4
      vertex 39.1481 40.7716 2.4
      vertex 39.5 40.5981 2.4
    endloop
  endfacet
  facet normal 0 0 1
    outer loop
      vertex 47.25 47.25 2.4
      vertex 38.7765 40.8978 2.4
      vertex 39.1481 40.7716 2.4
    endloop
  endfacet
  facet normal 0 0 1
    outer loop
      vertex 47.25 47.25 2.4
      vertex 38.3916 40.9743 2.4
      vertex 38.7765 40.8978 2.4
    endloop
  endfacet
  facet normal 0 0 1
    outer loop
      vertex 47.25 47.25 2.4
      vertex 38 41 2.4
      vertex 38.3916 40.9743 2.4
    endloop
  endfacet
  facet normal 0 0 1
    outer loop
      vertex 47.25 47.25 2.4
      vertex -38 41 2.4
      vertex 38 41 2.4
    endloop
  endfacet
  facet normal -0 0 1
    outer loop
      vertex -47.25 47.25 2.4
      vertex -38 41 2.4
      vertex 47.25 47.25 2.4
    endloop
  endfacet
  facet normal 0 0 1
    outer loop
      vertex -41 38 2.4
      vertex -47.2 36 2.4
      vertex -41 -38 2.4
    endloop
  endfacet
  facet normal 0 0 1
    outer loop
      vertex -40.9743 38.3916 2.4
      vertex -47.2 36 2.4
      vertex -41 38 2.4
    endloop
  endfacet
  facet normal 0 0 1
    outer loop
      vertex -40.8978 38.7765 2.4
      vertex -47.2 36 2.4
      vertex -40.9743 38.3916 2.4
    endloop
  endfacet
  facet normal 0 0 1
    outer loop
      vertex -40.7716 39.1481 2.4
      vertex -47.2 36 2.4
      vertex -40.8978 38.7765 2.4
    endloop
  endfacet
  facet normal 0 0 1
    outer loop
      vertex -47.25 47.25 2.4
      vertex -40.7716 39.1481 2.4
      vertex -40.5981 39.5 2.4
    endloop
  endfacet
  facet normal 0 0 1
    outer loop
      vertex -47.25 47.25 2.4
      vertex -40.5981 39.5 2.4
      vertex -40.3801 39.8263 2.4
    endloop
  endfacet
  facet normal 0 0 1
    outer loop
      vertex -47.25 47.25 2.4
      vertex -40.3801 39.8263 2.4
      vertex -40.1213 40.1213 2.4
    endloop
  endfacet
  facet normal 0 0 1
    outer loop
      vertex -47.25 47.25 2.4
      vertex -40.1213 40.1213 2.4
      vertex -39.8263 40.3801 2.4
    endloop
  endfacet
  facet normal 0 0 1
    outer loop
      vertex -47.25 47.25 2.4
      vertex -39.8263 40.3801 2.4
      vertex -39.5 40.5981 2.4
    endloop
  endfacet
  facet normal 0 0 1
    outer loop
      vertex -38 41 2.4
      vertex -47.25 47.25 2.4
      vertex -38.3916 40.9743 2.4
    endloop
  endfacet
  facet normal 0 0 1
    outer loop
      vertex -47.25 47.25 2.4
      vertex -38.7765 40.8978 2.4
      vertex -38.3916 40.9743 2.4
    endloop
  endfacet
  facet normal 0 0 1
    outer loop
      vertex -47.25 47.25 2.4
      vertex -39.1481 40.7716 2.4
      vertex -38.7765 40.8978 2.4
    endloop
  endfacet
  facet normal 0 0 1
    outer loop
      vertex -47.25 47.25 2.4
      vertex -39.5 40.5981 2.4
      vertex -39.1481 40.7716 2.4
    endloop
  endfacet
  facet normal 0 0 1
    outer loop
      vertex -40.7716 39.1481 2.4
      vertex -47.25 47.25 2.4
      vertex -47.2 36 2.4
    endloop
  endfacet
  facet normal 0 0 1
    outer loop
      vertex -47.2 36 2.4
      vertex -47.25 47.25 2.4
      vertex -47.25 36 2.4
    endloop
  endfacet
  facet normal -0 0 1
    outer loop
      vertex 47.2 -36 2.4
      vertex 47.25 -47.25 2.4
      vertex 47.25 -36 2.4
    endloop
  endfacet
  facet normal 0 0 1
    outer loop
      vertex 41 -38 2.4
      vertex 47.2 -36 2.4
      vertex 41 38 2.4
    endloop
  endfacet
  facet normal 0 0 1
    outer loop
      vertex 40.9743 -38.3916 2.4
      vertex 47.2 -36 2.4
      vertex 41 -38 2.4
    endloop
  endfacet
  facet normal 0 0 1
    outer loop
      vertex 40.8978 -38.7765 2.4
      vertex 47.2 -36 2.4
      vertex 40.9743 -38.3916 2.4
    endloop
  endfacet
  facet normal 0 0 1
    outer loop
      vertex 40.7716 -39.1481 2.4
      vertex 47.2 -36 2.4
      vertex 40.8978 -38.7765 2.4
    endloop
  endfacet
  facet normal 0 0 1
    outer loop
      vertex 47.2 -36 2.4
      vertex 40.7716 -39.1481 2.4
      vertex 47.25 -47.25 2.4
    endloop
  endfacet
  facet normal -0 0 1
    outer loop
      vertex 40.5981 -39.5 2.4
      vertex 47.25 -47.25 2.4
      vertex 40.7716 -39.1481 2.4
    endloop
  endfacet
  facet normal -0 0 1
    outer loop
      vertex 40.3801 -39.8263 2.4
      vertex 47.25 -47.25 2.4
      vertex 40.5981 -39.5 2.4
    endloop
  endfacet
  facet normal -0 0 1
    outer loop
      vertex 40.1213 -40.1213 2.4
      vertex 47.25 -47.25 2.4
      vertex 40.3801 -39.8263 2.4
    endloop
  endfacet
  facet normal -0 0 1
    outer loop
      vertex 39.8263 -40.3801 2.4
      vertex 47.25 -47.25 2.4
      vertex 40.1213 -40.1213 2.4
    endloop
  endfacet
  facet normal -0 0 1
    outer loop
      vertex 39.5 -40.5981 2.4
      vertex 47.25 -47.25 2.4
      vertex 39.8263 -40.3801 2.4
    endloop
  endfacet
  facet normal -0 0 1
    outer loop
      vertex 39.1481 -40.7716 2.4
      vertex 47.25 -47.25 2.4
      vertex 39.5 -40.5981 2.4
    endloop
  endfacet
  facet normal -0 0 1
    outer loop
      vertex 38.7765 -40.8978 2.4
      vertex 47.25 -47.25 2.4
      vertex 39.1481 -40.7716 2.4
    endloop
  endfacet
  facet normal -0 0 1
    outer loop
      vertex 38.3916 -40.9743 2.4
      vertex 47.25 -47.25 2.4
      vertex 38.7765 -40.8978 2.4
    endloop
  endfacet
  facet normal -0 0 1
    outer loop
      vertex 38 -41 2.4
      vertex 47.25 -47.25 2.4
      vertex 38.3916 -40.9743 2.4
    endloop
  endfacet
  facet normal -0 0 1
    outer loop
      vertex -38 -41 2.4
      vertex 47.25 -47.25 2.4
      vertex 38 -41 2.4
    endloop
  endfacet
  facet normal 0 0 1
    outer loop
      vertex -47.25 -47.25 2.4
      vertex -38 -41 2.4
      vertex -38.3916 -40.9743 2.4
    endloop
  endfacet
  facet normal -0 0 1
    outer loop
      vertex -47.2 -36 2.4
      vertex -41 -38 2.4
      vertex -47.2 36 2.4
    endloop
  endfacet
  facet normal 0 0 1
    outer loop
      vertex -41 -38 2.4
      vertex -47.2 -36 2.4
      vertex -40.9743 -38.3916 2.4
    endloop
  endfacet
  facet normal 0 0 1
    outer loop
      vertex -47.2 -36 2.4
      vertex -40.8978 -38.7765 2.4
      vertex -40.9743 -38.3916 2.4
    endloop
  endfacet
  facet normal 0 0 1
    outer loop
      vertex -47.2 -36 2.4
      vertex -40.7716 -39.1481 2.4
      vertex -40.8978 -38.7765 2.4
    endloop
  endfacet
  facet normal 0 0 1
    outer loop
      vertex -47.25 -47.25 2.4
      vertex -40.7716 -39.1481 2.4
      vertex -47.2 -36 2.4
    endloop
  endfacet
  facet normal 0 0 1
    outer loop
      vertex -40.7716 -39.1481 2.4
      vertex -47.25 -47.25 2.4
      vertex -40.5981 -39.5 2.4
    endloop
  endfacet
  facet normal 0 0 1
    outer loop
      vertex -40.5981 -39.5 2.4
      vertex -47.25 -47.25 2.4
      vertex -40.3801 -39.8263 2.4
    endloop
  endfacet
  facet normal 0 0 1
    outer loop
      vertex -40.3801 -39.8263 2.4
      vertex -47.25 -47.25 2.4
      vertex -40.1213 -40.1213 2.4
    endloop
  endfacet
  facet normal 0 0 1
    outer loop
      vertex -40.1213 -40.1213 2.4
      vertex -47.25 -47.25 2.4
      vertex -39.8263 -40.3801 2.4
    endloop
  endfacet
  facet normal 0 0 1
    outer loop
      vertex -47.25 -47.25 2.4
      vertex -47.2 -36 2.4
      vertex -47.25 -36 2.4
    endloop
  endfacet
  facet normal 0 0 1
    outer loop
      vertex -38 -41 2.4
      vertex -47.25 -47.25 2.4
      vertex 47.25 -47.25 2.4
    endloop
  endfacet
  facet normal 0 0 1
    outer loop
      vertex -38.7765 -40.8978 2.4
      vertex -47.25 -47.25 2.4
      vertex -38.3916 -40.9743 2.4
    endloop
  endfacet
  facet normal 0 0 1
    outer loop
      vertex -39.1481 -40.7716 2.4
      vertex -47.25 -47.25 2.4
      vertex -38.7765 -40.8978 2.4
    endloop
  endfacet
  facet normal 0 0 1
    outer loop
      vertex -39.5 -40.5981 2.4
      vertex -47.25 -47.25 2.4
      vertex -39.1481 -40.7716 2.4
    endloop
  endfacet
  facet normal 0 0 1
    outer loop
      vertex -39.8263 -40.3801 2.4
      vertex -47.25 -47.25 2.4
      vertex -39.5 -40.5981 2.4
    endloop
  endfacet
  facet normal -1 0 0
    outer loop
      vertex 47.25 -47.25 2.4
      vertex 47.25 -36 14.5
      vertex 47.25 -36 2.4
    endloop
  endfacet
  facet normal -1 -0 0
    outer loop
      vertex 47.25 -36 14.5
      vertex 47.25 -47.25 2.4
      vertex 47.25 -47.25 14.5
    endloop
  endfacet
  facet normal -1 0 0
    outer loop
      vertex 47.25 36 2.4
      vertex 47.25 47.25 14.5
      vertex 47.25 47.25 2.4
    endloop
  endfacet
  facet normal -1 -0 0
    outer loop
      vertex 47.25 47.25 14.5
      vertex 47.25 36 2.4
      vertex 47.25 36 14.5
    endloop
  endfacet
  facet normal 1 -0 0
    outer loop
      vertex -47.25 -47.25 14.5
      vertex -47.25 -36 2.4
      vertex -47.25 -36 14.5
    endloop
  endfacet
  facet normal 1 0 0
    outer loop
      vertex -47.25 -36 2.4
      vertex -47.25 -47.25 14.5
      vertex -47.25 -47.25 2.4
    endloop
  endfacet
  facet normal 1 -0 0
    outer loop
      vertex -47.25 36 14.5
      vertex -47.25 47.25 2.4
      vertex -47.25 47.25 14.5
    endloop
  endfacet
  facet normal 1 0 0
    outer loop
      vertex -47.25 47.25 2.4
      vertex -47.25 36 14.5
      vertex -47.25 36 2.4
    endloop
  endfacet
  facet normal 0 1 -0
    outer loop
      vertex 47.25 -47.25 2.4
      vertex -47.25 -47.25 14.5
      vertex 47.25 -47.25 14.5
    endloop
  endfacet
  facet normal 0 1 0
    outer loop
      vertex -47.25 -47.25 14.5
      vertex 47.25 -47.25 2.4
      vertex -47.25 -47.25 2.4
    endloop
  endfacet
  facet normal 0 -1 0
    outer loop
      vertex -47.25 47.25 2.4
      vertex 47.25 47.25 14.5
      vertex -47.25 47.25 14.5
    endloop
  endfacet
  facet normal 0 -1 -0
    outer loop
      vertex 47.25 47.25 14.5
      vertex -47.25 47.25 2.4
      vertex 47.25 47.25 2.4
    endloop
  endfacet
  facet normal 0 -0.939804 0.341713
    outer loop
      vertex -47.25 47.25 14.5
      vertex 47.6136 47.6136 15.5
      vertex -47.6136 47.6136 15.5
    endloop
  endfacet
  facet normal 0 -0.939804 0.341713
    outer loop
      vertex 47.6136 47.6136 15.5
      vertex -47.25 47.25 14.5
      vertex 47.25 47.25 14.5
    endloop
  endfacet
  facet normal 0.939804 0 0.341713
    outer loop
      vertex -47.6136 -36 15.5
      vertex -47.25 -47.25 14.5
      vertex -47.25 -36 14.5
    endloop
  endfacet
  facet normal 0.939804 0 0.341713
    outer loop
      vertex -47.25 -47.25 14.5
      vertex -47.6136 -36 15.5
      vertex -47.6136 -47.6136 15.5
    endloop
  endfacet
  facet normal 0.939804 -0 0.341713
    outer loop
      vertex -47.6136 36 15.5
      vertex -47.25 47.25 14.5
      vertex -47.6136 47.6136 15.5
    endloop
  endfacet
  facet normal 0.939804 0 0.341713
    outer loop
      vertex -47.25 47.25 14.5
      vertex -47.6136 36 15.5
      vertex -47.25 36 14.5
    endloop
  endfacet
  facet normal -0.939804 0 0.341713
    outer loop
      vertex 47.6136 36 15.5
      vertex 47.25 47.25 14.5
      vertex 47.25 36 14.5
    endloop
  endfacet
  facet normal -0.939804 0 0.341713
    outer loop
      vertex 47.25 47.25 14.5
      vertex 47.6136 36 15.5
      vertex 47.6136 47.6136 15.5
    endloop
  endfacet
  facet normal -0.939804 0 0.341713
    outer loop
      vertex 47.25 -47.25 14.5
      vertex 47.6136 -36 15.5
      vertex 47.25 -36 14.5
    endloop
  endfacet
  facet normal -0.939804 0 0.341713
    outer loop
      vertex 47.6136 -36 15.5
      vertex 47.25 -47.25 14.5
      vertex 47.6136 -47.6136 15.5
    endloop
  endfacet
  facet normal 0 0.939804 0.341713
    outer loop
      vertex 47.25 -47.25 14.5
      vertex -47.6136 -47.6136 15.5
      vertex 47.6136 -47.6136 15.5
    endloop
  endfacet
  facet normal 0 0.939804 0.341713
    outer loop
      vertex -47.6136 -47.6136 15.5
      vertex 47.25 -47.25 14.5
      vertex -47.25 -47.25 14.5
    endloop
  endfacet
  facet normal -0.321574 0.946885 0
    outer loop
      vertex 39.1481 -40.7716 0
      vertex 38.7765 -40.8978 2.4
      vertex 39.1481 -40.7716 2.4
    endloop
  endfacet
  facet normal -0.321574 0.946885 0
    outer loop
      vertex 38.7765 -40.8978 2.4
      vertex 39.1481 -40.7716 0
      vertex 38.7765 -40.8978 0
    endloop
  endfacet
  facet normal -0.0654873 0.997853 0
    outer loop
      vertex 38.3916 -40.9743 0
      vertex 38 -41 2.4
      vertex 38.3916 -40.9743 2.4
    endloop
  endfacet
  facet normal -0.0654873 0.997853 0
    outer loop
      vertex 38 -41 2.4
      vertex 38.3916 -40.9743 0
      vertex 38 -41 0
    endloop
  endfacet
  facet normal 0.19494 -0.980815 0
    outer loop
      vertex -38.7765 40.8978 0
      vertex -38.3916 40.9743 2.4
      vertex -38.7765 40.8978 2.4
    endloop
  endfacet
  facet normal 0.19494 -0.980815 0
    outer loop
      vertex -38.3916 40.9743 2.4
      vertex -38.7765 40.8978 0
      vertex -38.3916 40.9743 0
    endloop
  endfacet
  facet normal -0.19494 0.980815 0
    outer loop
      vertex 38.7765 -40.8978 0
      vertex 38.3916 -40.9743 2.4
      vertex 38.7765 -40.8978 2.4
    endloop
  endfacet
  facet normal -0.19494 0.980815 0
    outer loop
      vertex 38.3916 -40.9743 2.4
      vertex 38.7765 -40.8978 0
      vertex 38.3916 -40.9743 0
    endloop
  endfacet
  facet normal -0.751724 -0.659478 0
    outer loop
      vertex 40.3801 39.8263 0
      vertex 40.1213 40.1213 2.4
      vertex 40.1213 40.1213 0
    endloop
  endfacet
  facet normal -0.751724 -0.659478 0
    outer loop
      vertex 40.1213 40.1213 2.4
      vertex 40.3801 39.8263 0
      vertex 40.3801 39.8263 2.4
    endloop
  endfacet
  facet normal 0.997853 -0.0654873 0
    outer loop
      vertex -41 38 2.4
      vertex -40.9743 38.3916 0
      vertex -40.9743 38.3916 2.4
    endloop
  endfacet
  facet normal 0.997853 -0.0654873 0
    outer loop
      vertex -40.9743 38.3916 0
      vertex -41 38 2.4
      vertex -41 38 0
    endloop
  endfacet
  facet normal 1 -0 0
    outer loop
      vertex -41 -38 2.4
      vertex -41 38 0
      vertex -41 38 2.4
    endloop
  endfacet
  facet normal 1 0 0
    outer loop
      vertex -41 38 0
      vertex -41 -38 2.4
      vertex -41 -38 0
    endloop
  endfacet
  facet normal 0 1 -0
    outer loop
      vertex 38 -41 0
      vertex -38 -41 2.4
      vertex 38 -41 2.4
    endloop
  endfacet
  facet normal 0 1 0
    outer loop
      vertex -38 -41 2.4
      vertex 38 -41 0
      vertex -38 -41 0
    endloop
  endfacet
  facet normal -0.0654873 -0.997853 0
    outer loop
      vertex 38 41 0
      vertex 38.3916 40.9743 2.4
      vertex 38 41 2.4
    endloop
  endfacet
  facet normal -0.0654873 -0.997853 -0
    outer loop
      vertex 38.3916 40.9743 2.4
      vertex 38 41 0
      vertex 38.3916 40.9743 0
    endloop
  endfacet
  facet normal 0 -1 0
    outer loop
      vertex -38 41 0
      vertex 38 41 2.4
      vertex -38 41 2.4
    endloop
  endfacet
  facet normal 0 -1 -0
    outer loop
      vertex 38 41 2.4
      vertex -38 41 0
      vertex 38 41 0
    endloop
  endfacet
  facet normal -1 0 0
    outer loop
      vertex 41 -38 0
      vertex 41 38 2.4
      vertex 41 38 0
    endloop
  endfacet
  facet normal -1 -0 0
    outer loop
      vertex 41 38 2.4
      vertex 41 -38 0
      vertex 41 -38 2.4
    endloop
  endfacet
  facet normal -0.831501 0.555523 0
    outer loop
      vertex 40.3801 -39.8263 0
      vertex 40.5981 -39.5 2.4
      vertex 40.5981 -39.5 0
    endloop
  endfacet
  facet normal -0.831501 0.555523 0
    outer loop
      vertex 40.5981 -39.5 2.4
      vertex 40.3801 -39.8263 0
      vertex 40.3801 -39.8263 2.4
    endloop
  endfacet
  facet normal 0.751724 -0.659478 0
    outer loop
      vertex -40.3801 39.8263 2.4
      vertex -40.1213 40.1213 0
      vertex -40.1213 40.1213 2.4
    endloop
  endfacet
  facet normal 0.751724 -0.659478 0
    outer loop
      vertex -40.1213 40.1213 0
      vertex -40.3801 39.8263 2.4
      vertex -40.3801 39.8263 0
    endloop
  endfacet
  facet normal 0.321574 0.946885 -0
    outer loop
      vertex -38.7765 -40.8978 0
      vertex -39.1481 -40.7716 2.4
      vertex -38.7765 -40.8978 2.4
    endloop
  endfacet
  facet normal 0.321574 0.946885 0
    outer loop
      vertex -39.1481 -40.7716 2.4
      vertex -38.7765 -40.8978 0
      vertex -39.1481 -40.7716 0
    endloop
  endfacet
  facet normal -0.442211 -0.896911 0
    outer loop
      vertex 39.1481 40.7716 0
      vertex 39.5 40.5981 2.4
      vertex 39.1481 40.7716 2.4
    endloop
  endfacet
  facet normal -0.442211 -0.896911 -0
    outer loop
      vertex 39.5 40.5981 2.4
      vertex 39.1481 40.7716 0
      vertex 39.5 40.5981 0
    endloop
  endfacet
  facet normal -0.321574 -0.946885 0
    outer loop
      vertex 38.7765 40.8978 0
      vertex 39.1481 40.7716 2.4
      vertex 38.7765 40.8978 2.4
    endloop
  endfacet
  facet normal -0.321574 -0.946885 -0
    outer loop
      vertex 39.1481 40.7716 2.4
      vertex 38.7765 40.8978 0
      vertex 39.1481 40.7716 0
    endloop
  endfacet
  facet normal 0.0654873 -0.997853 0
    outer loop
      vertex -38.3916 40.9743 0
      vertex -38 41 2.4
      vertex -38.3916 40.9743 2.4
    endloop
  endfacet
  facet normal 0.0654873 -0.997853 0
    outer loop
      vertex -38 41 2.4
      vertex -38.3916 40.9743 0
      vertex -38 41 0
    endloop
  endfacet
  facet normal 0.442211 -0.896911 0
    outer loop
      vertex -39.5 40.5981 0
      vertex -39.1481 40.7716 2.4
      vertex -39.5 40.5981 2.4
    endloop
  endfacet
  facet normal 0.442211 -0.896911 0
    outer loop
      vertex -39.1481 40.7716 2.4
      vertex -39.5 40.5981 0
      vertex -39.1481 40.7716 0
    endloop
  endfacet
  facet normal 0.321574 -0.946885 0
    outer loop
      vertex -39.1481 40.7716 0
      vertex -38.7765 40.8978 2.4
      vertex -39.1481 40.7716 2.4
    endloop
  endfacet
  facet normal 0.321574 -0.946885 0
    outer loop
      vertex -38.7765 40.8978 2.4
      vertex -39.1481 40.7716 0
      vertex -38.7765 40.8978 0
    endloop
  endfacet
  facet normal 0.946885 -0.321574 0
    outer loop
      vertex -40.8978 38.7765 2.4
      vertex -40.7716 39.1481 0
      vertex -40.7716 39.1481 2.4
    endloop
  endfacet
  facet normal 0.946885 -0.321574 0
    outer loop
      vertex -40.7716 39.1481 0
      vertex -40.8978 38.7765 2.4
      vertex -40.8978 38.7765 0
    endloop
  endfacet
  facet normal 0.980815 -0.19494 0
    outer loop
      vertex -40.9743 38.3916 2.4
      vertex -40.8978 38.7765 0
      vertex -40.8978 38.7765 2.4
    endloop
  endfacet
  facet normal 0.980815 -0.19494 0
    outer loop
      vertex -40.8978 38.7765 0
      vertex -40.9743 38.3916 2.4
      vertex -40.9743 38.3916 0
    endloop
  endfacet
  facet normal 0.831501 -0.555523 0
    outer loop
      vertex -40.5981 39.5 2.4
      vertex -40.3801 39.8263 0
      vertex -40.3801 39.8263 2.4
    endloop
  endfacet
  facet normal 0.831501 -0.555523 0
    outer loop
      vertex -40.3801 39.8263 0
      vertex -40.5981 39.5 2.4
      vertex -40.5981 39.5 0
    endloop
  endfacet
  facet normal 0.896911 0.442211 0
    outer loop
      vertex -40.5981 -39.5 2.4
      vertex -40.7716 -39.1481 0
      vertex -40.7716 -39.1481 2.4
    endloop
  endfacet
  facet normal 0.896911 0.442211 0
    outer loop
      vertex -40.7716 -39.1481 0
      vertex -40.5981 -39.5 2.4
      vertex -40.5981 -39.5 0
    endloop
  endfacet
  facet normal 0.659478 0.751724 -0
    outer loop
      vertex -39.8263 -40.3801 0
      vertex -40.1213 -40.1213 2.4
      vertex -39.8263 -40.3801 2.4
    endloop
  endfacet
  facet normal 0.659478 0.751724 0
    outer loop
      vertex -40.1213 -40.1213 2.4
      vertex -39.8263 -40.3801 0
      vertex -40.1213 -40.1213 0
    endloop
  endfacet
  facet normal 0.442211 0.896911 -0
    outer loop
      vertex -39.1481 -40.7716 0
      vertex -39.5 -40.5981 2.4
      vertex -39.1481 -40.7716 2.4
    endloop
  endfacet
  facet normal 0.442211 0.896911 0
    outer loop
      vertex -39.5 -40.5981 2.4
      vertex -39.1481 -40.7716 0
      vertex -39.5 -40.5981 0
    endloop
  endfacet
  facet normal 0.19494 0.980815 -0
    outer loop
      vertex -38.3916 -40.9743 0
      vertex -38.7765 -40.8978 2.4
      vertex -38.3916 -40.9743 2.4
    endloop
  endfacet
  facet normal 0.19494 0.980815 0
    outer loop
      vertex -38.7765 -40.8978 2.4
      vertex -38.3916 -40.9743 0
      vertex -38.7765 -40.8978 0
    endloop
  endfacet
  facet normal -0.555523 -0.831501 0
    outer loop
      vertex 39.5 40.5981 0
      vertex 39.8263 40.3801 2.4
      vertex 39.5 40.5981 2.4
    endloop
  endfacet
  facet normal -0.555523 -0.831501 -0
    outer loop
      vertex 39.8263 40.3801 2.4
      vertex 39.5 40.5981 0
      vertex 39.8263 40.3801 0
    endloop
  endfacet
  facet normal -0.659478 -0.751724 0
    outer loop
      vertex 39.8263 40.3801 0
      vertex 40.1213 40.1213 2.4
      vertex 39.8263 40.3801 2.4
    endloop
  endfacet
  facet normal -0.659478 -0.751724 -0
    outer loop
      vertex 40.1213 40.1213 2.4
      vertex 39.8263 40.3801 0
      vertex 40.1213 40.1213 0
    endloop
  endfacet
  facet normal -0.19494 -0.980815 0
    outer loop
      vertex 38.3916 40.9743 0
      vertex 38.7765 40.8978 2.4
      vertex 38.3916 40.9743 2.4
    endloop
  endfacet
  facet normal -0.19494 -0.980815 -0
    outer loop
      vertex 38.7765 40.8978 2.4
      vertex 38.3916 40.9743 0
      vertex 38.7765 40.8978 0
    endloop
  endfacet
  facet normal -0.946885 -0.321574 0
    outer loop
      vertex 40.8978 38.7765 0
      vertex 40.7716 39.1481 2.4
      vertex 40.7716 39.1481 0
    endloop
  endfacet
  facet normal -0.946885 -0.321574 0
    outer loop
      vertex 40.7716 39.1481 2.4
      vertex 40.8978 38.7765 0
      vertex 40.8978 38.7765 2.4
    endloop
  endfacet
  facet normal -0.896911 -0.442211 0
    outer loop
      vertex 40.7716 39.1481 0
      vertex 40.5981 39.5 2.4
      vertex 40.5981 39.5 0
    endloop
  endfacet
  facet normal -0.896911 -0.442211 0
    outer loop
      vertex 40.5981 39.5 2.4
      vertex 40.7716 39.1481 0
      vertex 40.7716 39.1481 2.4
    endloop
  endfacet
  facet normal -0.896911 0.442211 0
    outer loop
      vertex 40.5981 -39.5 0
      vertex 40.7716 -39.1481 2.4
      vertex 40.7716 -39.1481 0
    endloop
  endfacet
  facet normal -0.896911 0.442211 0
    outer loop
      vertex 40.7716 -39.1481 2.4
      vertex 40.5981 -39.5 0
      vertex 40.5981 -39.5 2.4
    endloop
  endfacet
  facet normal -0.980815 0.19494 0
    outer loop
      vertex 40.8978 -38.7765 0
      vertex 40.9743 -38.3916 2.4
      vertex 40.9743 -38.3916 0
    endloop
  endfacet
  facet normal -0.980815 0.19494 0
    outer loop
      vertex 40.9743 -38.3916 2.4
      vertex 40.8978 -38.7765 0
      vertex 40.8978 -38.7765 2.4
    endloop
  endfacet
  facet normal -0.751724 0.659478 0
    outer loop
      vertex 40.1213 -40.1213 0
      vertex 40.3801 -39.8263 2.4
      vertex 40.3801 -39.8263 0
    endloop
  endfacet
  facet normal -0.751724 0.659478 0
    outer loop
      vertex 40.3801 -39.8263 2.4
      vertex 40.1213 -40.1213 0
      vertex 40.1213 -40.1213 2.4
    endloop
  endfacet
  facet normal -0.442211 0.896911 0
    outer loop
      vertex 39.5 -40.5981 0
      vertex 39.1481 -40.7716 2.4
      vertex 39.5 -40.5981 2.4
    endloop
  endfacet
  facet normal -0.442211 0.896911 0
    outer loop
      vertex 39.1481 -40.7716 2.4
      vertex 39.5 -40.5981 0
      vertex 39.1481 -40.7716 0
    endloop
  endfacet
  facet normal 0.659478 -0.751724 0
    outer loop
      vertex -40.1213 40.1213 0
      vertex -39.8263 40.3801 2.4
      vertex -40.1213 40.1213 2.4
    endloop
  endfacet
  facet normal 0.659478 -0.751724 0
    outer loop
      vertex -39.8263 40.3801 2.4
      vertex -40.1213 40.1213 0
      vertex -39.8263 40.3801 0
    endloop
  endfacet
  facet normal 0.555523 -0.831501 0
    outer loop
      vertex -39.8263 40.3801 0
      vertex -39.5 40.5981 2.4
      vertex -39.8263 40.3801 2.4
    endloop
  endfacet
  facet normal 0.555523 -0.831501 0
    outer loop
      vertex -39.5 40.5981 2.4
      vertex -39.8263 40.3801 0
      vertex -39.5 40.5981 0
    endloop
  endfacet
  facet normal 0.896911 -0.442211 0
    outer loop
      vertex -40.7716 39.1481 2.4
      vertex -40.5981 39.5 0
      vertex -40.5981 39.5 2.4
    endloop
  endfacet
  facet normal 0.896911 -0.442211 0
    outer loop
      vertex -40.5981 39.5 0
      vertex -40.7716 39.1481 2.4
      vertex -40.7716 39.1481 0
    endloop
  endfacet
  facet normal 0.997853 0.0654873 0
    outer loop
      vertex -40.9743 -38.3916 2.4
      vertex -41 -38 0
      vertex -41 -38 2.4
    endloop
  endfacet
  facet normal 0.997853 0.0654873 0
    outer loop
      vertex -41 -38 0
      vertex -40.9743 -38.3916 2.4
      vertex -40.9743 -38.3916 0
    endloop
  endfacet
  facet normal 0.946885 0.321574 0
    outer loop
      vertex -40.7716 -39.1481 2.4
      vertex -40.8978 -38.7765 0
      vertex -40.8978 -38.7765 2.4
    endloop
  endfacet
  facet normal 0.946885 0.321574 0
    outer loop
      vertex -40.8978 -38.7765 0
      vertex -40.7716 -39.1481 2.4
      vertex -40.7716 -39.1481 0
    endloop
  endfacet
  facet normal 0.831501 0.555523 0
    outer loop
      vertex -40.3801 -39.8263 2.4
      vertex -40.5981 -39.5 0
      vertex -40.5981 -39.5 2.4
    endloop
  endfacet
  facet normal 0.831501 0.555523 0
    outer loop
      vertex -40.5981 -39.5 0
      vertex -40.3801 -39.8263 2.4
      vertex -40.3801 -39.8263 0
    endloop
  endfacet
  facet normal 0.555523 0.831501 -0
    outer loop
      vertex -39.5 -40.5981 0
      vertex -39.8263 -40.3801 2.4
      vertex -39.5 -40.5981 2.4
    endloop
  endfacet
  facet normal 0.555523 0.831501 0
    outer loop
      vertex -39.8263 -40.3801 2.4
      vertex -39.5 -40.5981 0
      vertex -39.8263 -40.3801 0
    endloop
  endfacet
  facet normal 0.0654873 0.997853 -0
    outer loop
      vertex -38 -41 0
      vertex -38.3916 -40.9743 2.4
      vertex -38 -41 2.4
    endloop
  endfacet
  facet normal 0.0654873 0.997853 0
    outer loop
      vertex -38.3916 -40.9743 2.4
      vertex -38 -41 0
      vertex -38.3916 -40.9743 0
    endloop
  endfacet
  facet normal -0.980815 -0.19494 0
    outer loop
      vertex 40.9743 38.3916 0
      vertex 40.8978 38.7765 2.4
      vertex 40.8978 38.7765 0
    endloop
  endfacet
  facet normal -0.980815 -0.19494 0
    outer loop
      vertex 40.8978 38.7765 2.4
      vertex 40.9743 38.3916 0
      vertex 40.9743 38.3916 2.4
    endloop
  endfacet
  facet normal -0.997853 -0.0654873 0
    outer loop
      vertex 41 38 0
      vertex 40.9743 38.3916 2.4
      vertex 40.9743 38.3916 0
    endloop
  endfacet
  facet normal -0.997853 -0.0654873 0
    outer loop
      vertex 40.9743 38.3916 2.4
      vertex 41 38 0
      vertex 41 38 2.4
    endloop
  endfacet
  facet normal -0.831501 -0.555523 0
    outer loop
      vertex 40.5981 39.5 0
      vertex 40.3801 39.8263 2.4
      vertex 40.3801 39.8263 0
    endloop
  endfacet
  facet normal -0.831501 -0.555523 0
    outer loop
      vertex 40.3801 39.8263 2.4
      vertex 40.5981 39.5 0
      vertex 40.5981 39.5 2.4
    endloop
  endfacet
  facet normal -0.946885 0.321574 0
    outer loop
      vertex 40.7716 -39.1481 0
      vertex 40.8978 -38.7765 2.4
      vertex 40.8978 -38.7765 0
    endloop
  endfacet
  facet normal -0.946885 0.321574 0
    outer loop
      vertex 40.8978 -38.7765 2.4
      vertex 40.7716 -39.1481 0
      vertex 40.7716 -39.1481 2.4
    endloop
  endfacet
  facet normal -0.997853 0.0654873 0
    outer loop
      vertex 40.9743 -38.3916 0
      vertex 41 -38 2.4
      vertex 41 -38 0
    endloop
  endfacet
  facet normal -0.997853 0.0654873 0
    outer loop
      vertex 41 -38 2.4
      vertex 40.9743 -38.3916 0
      vertex 40.9743 -38.3916 2.4
    endloop
  endfacet
  facet normal -0.555523 0.831501 0
    outer loop
      vertex 39.8263 -40.3801 0
      vertex 39.5 -40.5981 2.4
      vertex 39.8263 -40.3801 2.4
    endloop
  endfacet
  facet normal -0.555523 0.831501 0
    outer loop
      vertex 39.5 -40.5981 2.4
      vertex 39.8263 -40.3801 0
      vertex 39.5 -40.5981 0
    endloop
  endfacet
  facet normal 0.980815 0.19494 0
    outer loop
      vertex -40.8978 -38.7765 2.4
      vertex -40.9743 -38.3916 0
      vertex -40.9743 -38.3916 2.4
    endloop
  endfacet
  facet normal 0.980815 0.19494 0
    outer loop
      vertex -40.9743 -38.3916 0
      vertex -40.8978 -38.7765 2.4
      vertex -40.8978 -38.7765 0
    endloop
  endfacet
  facet normal 0.751724 0.659478 0
    outer loop
      vertex -40.1213 -40.1213 2.4
      vertex -40.3801 -39.8263 0
      vertex -40.3801 -39.8263 2.4
    endloop
  endfacet
  facet normal 0.751724 0.659478 0
    outer loop
      vertex -40.3801 -39.8263 0
      vertex -40.1213 -40.1213 2.4
      vertex -40.1213 -40.1213 0
    endloop
  endfacet
  facet normal -0.659478 0.751724 0
    outer loop
      vertex 40.1213 -40.1213 0
      vertex 39.8263 -40.3801 2.4
      vertex 40.1213 -40.1213 2.4
    endloop
  endfacet
  facet normal -0.659478 0.751724 0
    outer loop
      vertex 39.8263 -40.3801 2.4
      vertex 40.1213 -40.1213 0
      vertex 39.8263 -40.3801 0
    endloop
  endfacet
endsolid OpenSCAD_Model
