solid OpenSCAD_Model
  facet normal 0 0 -1
    outer loop
      vertex 75 0 0
      vertex -5 0 0
      vertex 20 6 0
    endloop
  endfacet
  facet normal 0 0 -1
    outer loop
      vertex 15.6077 6 0
      vertex 42.759 86 0
      vertex 20 6 0
    endloop
  endfacet
  facet normal -0 0 -1
    outer loop
      vertex 15.6077 6 0
      vertex -5 0 0
      vertex 0 6 0
    endloop
  endfacet
  facet normal 0 0 -1
    outer loop
      vertex 0 6 0
      vertex -5 11 0
      vertex 0 11 0
    endloop
  endfacet
  facet normal -0 0 -1
    outer loop
      vertex 0 6 0
      vertex -5 0 0
      vertex -5 11 0
    endloop
  endfacet
  facet normal 0 0 -1
    outer loop
      vertex 75 0 0
      vertex 68 6 0
      vertex 42.759 86 0
    endloop
  endfacet
  facet normal 0 0 -1
    outer loop
      vertex 42.759 86 0
      vertex 40.259 98 0
      vertex 75 0 0
    endloop
  endfacet
  facet normal 0 -0 -1
    outer loop
      vertex 15.6077 6 0
      vertex 20 6 0
      vertex -5 0 0
    endloop
  endfacet
  facet normal 0 0 -1
    outer loop
      vertex 20 6 0
      vertex 68 6 0
      vertex 75 0 0
    endloop
  endfacet
  facet normal 0 -0 -1
    outer loop
      vertex 40.259 98 0
      vertex 42.759 86 0
      vertex 15.6077 6 0
    endloop
  endfacet
  facet normal 0 0 1
    outer loop
      vertex 20 6 60
      vertex -5 0 60
      vertex 75 0 60
    endloop
  endfacet
  facet normal 0 -0 1
    outer loop
      vertex 20 6 60
      vertex 42.759 86 60
      vertex 15.6077 6 60
    endloop
  endfacet
  facet normal -0 0 1
    outer loop
      vertex 0 6 60
      vertex -5 0 60
      vertex 15.6077 6 60
    endloop
  endfacet
  facet normal 0 0 1
    outer loop
      vertex 0 11 60
      vertex -5 11 60
      vertex 0 6 60
    endloop
  endfacet
  facet normal 0 0 1
    outer loop
      vertex -5 11 60
      vertex -5 0 60
      vertex 0 6 60
    endloop
  endfacet
  facet normal 0 0 1
    outer loop
      vertex 42.759 86 60
      vertex 68 6 60
      vertex 75 0 60
    endloop
  endfacet
  facet normal 0 0 1
    outer loop
      vertex 75 0 60
      vertex 40.259 98 60
      vertex 42.759 86 60
    endloop
  endfacet
  facet normal 0 0 1
    outer loop
      vertex -5 0 60
      vertex 20 6 60
      vertex 15.6077 6 60
    endloop
  endfacet
  facet normal 0 0 1
    outer loop
      vertex 75 0 60
      vertex 68 6 60
      vertex 20 6 60
    endloop
  endfacet
  facet normal 0 0 1
    outer loop
      vertex 15.6077 6 60
      vertex 42.759 86 60
      vertex 40.259 98 60
    endloop
  endfacet
  facet normal -0.965926 0.258819 0
    outer loop
      vertex 15.6077 6 0
      vertex 40.259 98 60
      vertex 40.259 98 0
    endloop
  endfacet
  facet normal -0.965926 0.258819 0
    outer loop
      vertex 15.6077 6 0
      vertex 15.6077 6 60
      vertex 40.259 98 60
    endloop
  endfacet
  facet normal 0 1 0
    outer loop
      vertex 0 6 0
      vertex 15.6077 6 60
      vertex 15.6077 6 0
    endloop
  endfacet
  facet normal 0 1 0
    outer loop
      vertex 0 6 0
      vertex 0 6 60
      vertex 15.6077 6 60
    endloop
  endfacet
  facet normal 1 0 0
    outer loop
      vertex 0 11 0
      vertex 0 6 60
      vertex 0 6 0
    endloop
  endfacet
  facet normal 1 0 -0
    outer loop
      vertex 0 11 0
      vertex 0 11 60
      vertex 0 6 60
    endloop
  endfacet
  facet normal 0 1 0
    outer loop
      vertex -5 11 0
      vertex 0 11 60
      vertex 0 11 0
    endloop
  endfacet
  facet normal 0 1 0
    outer loop
      vertex -5 11 0
      vertex -5 11 60
      vertex 0 11 60
    endloop
  endfacet
  facet normal -1 0 0
    outer loop
      vertex -5 0 0
      vertex -5 11 60
      vertex -5 11 0
    endloop
  endfacet
  facet normal -1 0 0
    outer loop
      vertex -5 0 0
      vertex -5 0 60
      vertex -5 11 60
    endloop
  endfacet
  facet normal 0 -1 0
    outer loop
      vertex 75 0 0
      vertex -5 0 60
      vertex -5 0 0
    endloop
  endfacet
  facet normal 0 -1 0
    outer loop
      vertex 75 0 0
      vertex 75 0 60
      vertex -5 0 60
    endloop
  endfacet
  facet normal 0.942528 0.334126 0
    outer loop
      vertex 40.259 98 0
      vertex 75 0 60
      vertex 75 0 0
    endloop
  endfacet
  facet normal 0.942528 0.334126 -0
    outer loop
      vertex 40.259 98 0
      vertex 40.259 98 60
      vertex 75 0 60
    endloop
  endfacet
  facet normal 0.961835 -0.27363 0
    outer loop
      vertex 42.759 86 0
      vertex 42.759 86 60
      vertex 20 6 0
    endloop
  endfacet
  facet normal 0.961835 -0.27363 0
    outer loop
      vertex 20 6 60
      vertex 20 6 0
      vertex 42.759 86 60
    endloop
  endfacet
  facet normal -0.953658 -0.300891 0
    outer loop
      vertex 68 6 0
      vertex 68 6 60
      vertex 42.759 86 0
    endloop
  endfacet
  facet normal -0.953658 -0.300891 -0
    outer loop
      vertex 42.759 86 60
      vertex 42.759 86 0
      vertex 68 6 60
    endloop
  endfacet
  facet normal 0 1 0
    outer loop
      vertex 20 6 0
      vertex 20 6 60
      vertex 68 6 0
    endloop
  endfacet
  facet normal 0 1 0
    outer loop
      vertex 68 6 60
      vertex 68 6 0
      vertex 20 6 60
    endloop
  endfacet
endsolid OpenSCAD_Model
